<!--
  - @license
  - Copyright (c) 2025 MatteuSan
  - SPDX-License-Identifier: MIT
  -->

<svg width="271" height="271" viewBox="0 0 271 271" fill="none" xmlns="http://www.w3.org/2000/svg">
<path d="M132.229 138.593L202.94 67.8822L224.506 115.612L222.739 166.17L193.04 199.404L132.229 138.593Z" fill="#516F9F"/>
<path d="M67.8823 67.1751L200.818 200.111L191.506 206.356L155.564 222.739L105.712 222.385L71.0643 198.343L45.6084 156.624L46.6691 113.844L60.8112 75.6604L61.6682 74.3961L62.3753 73.689L62.9325 72.832L67.8823 67.1751Z" fill="#12305E"/>
<rect x="101.823" y="101.116" width="48" height="48" transform="rotate(-45 101.823 101.116)" fill="#FF9E0A"/>
<path d="M202.94 67.8822C216.296 81.2382 225.038 97.9011 228.722 116.426C232.407 134.951 230.516 154.153 223.288 171.604C216.06 189.054 203.819 203.969 188.114 214.463C172.409 224.956 153.946 230.557 135.057 230.557C116.169 230.557 97.7053 224.956 82.0004 214.463C66.2955 203.969 54.0551 189.054 46.8269 171.604C39.5987 154.153 37.7075 134.951 41.3924 116.426C45.0773 97.9011 54.5263 80.5311 67.8822 67.1751L74.5998 73.8927C62.5794 85.913 54.0753 101.617 50.7589 118.289C47.4425 134.962 49.1446 152.244 55.65 167.949C62.1553 183.654 73.1717 197.078 87.3061 206.522C101.441 215.967 118.058 221.007 135.057 221.007C152.057 221.007 168.674 215.967 182.809 206.522C196.943 197.078 207.959 183.654 214.465 167.949C220.97 152.244 222.672 134.962 219.356 118.289C216.039 101.617 208.242 86.6201 196.222 74.5998L202.94 67.8822Z" fill="#071835"/>
</svg>
