<!--
  -  Copyright (c) 2024 MatteuSan
  -
  -  Permission is hereby granted, free of charge, to any person obtaining a copy
  -  of this software and associated documentation files (the "Software"), to deal
  -  in the Software without restriction, including without limitation the rights
  -  to use, copy, modify, merge, publish, distribute, sublicense, and/or sell
  -  copies of the Software, and to permit persons to whom the Software is
  -  furnished to do so, subject to the following conditions:
  -
  -  The above copyright notice and this permission notice shall be included in all
  -  copies or substantial portions of the Software.
  -
  -  THE SOFTWARE IS PROVIDED "AS IS", WITHOUT WARRANTY OF ANY KIND, EXPRESS OR
  -  IMPLIED, INCLUDING BUT NOT LIMITED TO THE WARRANTIES OF MERCHANTABILITY,
  -  FITNESS FOR A PARTICULAR PURPOSE AND NONINFRINGEMENT. IN NO EVENT SHALL THE
  -  AUTHORS OR COPYRIGHT HOLDERS BE LIABLE FOR ANY CLAIM, DAMAGES OR OTHER
  -  LIABILITY, WHETHER IN AN ACTION OF CONTRACT, TORT OR OTHERWISE, ARISING FROM,
  -  OUT OF OR IN CONNECTION WITH THE SOFTWARE OR THE USE OR OTHER DEALINGS IN THE
  -  SOFTWARE.
  -->

<svg width="1019" height="271" viewBox="0 0 1019 271" fill="none" xmlns="http://www.w3.org/2000/svg">
<path d="M132.229 138.593L202.94 67.8822L224.506 115.612L222.739 166.17L193.04 199.404L132.229 138.593Z" fill="#516F9F"/>
<path d="M67.8823 67.1751L200.818 200.111L191.506 206.356L155.564 222.739L105.712 222.385L71.0643 198.343L45.6084 156.624L46.6691 113.844L60.8112 75.6604L61.6682 74.3961L62.3753 73.689L62.9325 72.832L67.8823 67.1751Z" fill="#12305E"/>
<rect x="101.823" y="101.116" width="48" height="48" transform="rotate(-45 101.823 101.116)" fill="#FF9E0A"/>
<path d="M202.94 67.8822C216.296 81.2382 225.038 97.9011 228.722 116.426C232.407 134.951 230.516 154.153 223.288 171.604C216.06 189.054 203.819 203.969 188.114 214.463C172.409 224.956 153.946 230.557 135.057 230.557C116.169 230.557 97.7053 224.956 82.0004 214.463C66.2955 203.969 54.0551 189.054 46.8269 171.604C39.5987 154.153 37.7075 134.951 41.3924 116.426C45.0773 97.9011 54.5263 80.5311 67.8822 67.1751L74.5998 73.8927C62.5794 85.913 54.0753 101.617 50.7589 118.289C47.4425 134.962 49.1446 152.244 55.65 167.949C62.1553 183.654 73.1717 197.078 87.3061 206.522C101.441 215.967 118.058 221.007 135.057 221.007C152.057 221.007 168.674 215.967 182.809 206.522C196.943 197.078 207.959 183.654 214.465 167.949C220.97 152.244 222.672 134.962 219.356 118.289C216.039 101.617 208.242 86.6201 196.222 74.5998L202.94 67.8822Z" fill="#071835"/>
<g filter="url(#filter0_d_2_52)">
<path d="M303.273 85.5625C302.915 84.3182 302.412 83.2187 301.764 82.2642C301.116 81.2926 300.324 80.4744 299.386 79.8097C298.466 79.1278 297.409 78.608 296.216 78.25C295.04 77.892 293.736 77.7131 292.304 77.7131C289.628 77.7131 287.276 78.3778 285.247 79.7074C283.236 81.0369 281.668 82.9716 280.543 85.5114C279.418 88.0341 278.855 91.1193 278.855 94.767C278.855 98.4148 279.409 101.517 280.517 104.074C281.625 106.631 283.193 108.582 285.222 109.929C287.25 111.259 289.645 111.923 292.406 111.923C294.912 111.923 297.051 111.48 298.824 110.594C300.614 109.69 301.977 108.42 302.915 106.784C303.869 105.148 304.347 103.213 304.347 100.98L306.597 101.312H293.097V92.9773H315.009V99.5739C315.009 104.176 314.037 108.131 312.094 111.438C310.151 114.727 307.474 117.267 304.065 119.057C300.656 120.83 296.753 121.716 292.355 121.716C287.446 121.716 283.134 120.634 279.418 118.469C275.702 116.287 272.804 113.193 270.724 109.188C268.662 105.165 267.631 100.392 267.631 94.8693C267.631 90.625 268.244 86.8409 269.472 83.517C270.716 80.1761 272.455 77.3466 274.688 75.0284C276.92 72.7102 279.52 70.946 282.486 69.7358C285.452 68.5256 288.665 67.9205 292.125 67.9205C295.091 67.9205 297.852 68.3551 300.409 69.2244C302.966 70.0767 305.233 71.2869 307.21 72.8551C309.205 74.4233 310.832 76.2898 312.094 78.4545C313.355 80.6023 314.165 82.9716 314.523 85.5625H303.273ZM334.319 121.741C331.813 121.741 329.58 121.307 327.62 120.438C325.66 119.551 324.109 118.247 322.967 116.526C321.842 114.787 321.279 112.622 321.279 110.031C321.279 107.849 321.68 106.017 322.481 104.534C323.282 103.051 324.373 101.858 325.754 100.955C327.134 100.051 328.702 99.3693 330.458 98.9091C332.231 98.4489 334.089 98.125 336.032 97.9375C338.316 97.6989 340.157 97.4773 341.555 97.2727C342.952 97.0511 343.967 96.7273 344.597 96.3011C345.228 95.875 345.543 95.2443 345.543 94.4091V94.2557C345.543 92.6364 345.032 91.3835 344.009 90.4972C343.004 89.6108 341.572 89.1676 339.714 89.1676C337.754 89.1676 336.194 89.6023 335.035 90.4716C333.876 91.3239 333.109 92.3977 332.734 93.6932L322.66 92.875C323.171 90.4886 324.177 88.4261 325.677 86.6875C327.177 84.9318 329.112 83.5852 331.481 82.6477C333.867 81.6932 336.629 81.2159 339.765 81.2159C341.947 81.2159 344.035 81.4716 346.029 81.983C348.04 82.4943 349.822 83.2869 351.373 84.3608C352.941 85.4347 354.177 86.8153 355.08 88.5028C355.984 90.1733 356.435 92.1761 356.435 94.5114V121H346.106V115.554H345.799C345.168 116.781 344.325 117.864 343.268 118.801C342.211 119.722 340.941 120.446 339.458 120.974C337.975 121.486 336.262 121.741 334.319 121.741ZM337.438 114.224C339.04 114.224 340.455 113.909 341.683 113.278C342.91 112.631 343.873 111.761 344.572 110.67C345.271 109.58 345.62 108.344 345.62 106.963V102.795C345.279 103.017 344.81 103.222 344.214 103.409C343.634 103.58 342.978 103.741 342.245 103.895C341.512 104.031 340.779 104.159 340.046 104.278C339.313 104.381 338.648 104.474 338.052 104.56C336.773 104.747 335.657 105.045 334.702 105.455C333.748 105.864 333.006 106.418 332.478 107.116C331.95 107.798 331.685 108.651 331.685 109.673C331.685 111.156 332.222 112.29 333.296 113.074C334.387 113.841 335.768 114.224 337.438 114.224ZM364.886 121V81.7273H375.778V121H364.886ZM370.357 76.6648C368.738 76.6648 367.349 76.1278 366.19 75.054C365.048 73.9631 364.477 72.6591 364.477 71.142C364.477 69.642 365.048 68.3551 366.19 67.2812C367.349 66.1903 368.738 65.6449 370.357 65.6449C371.977 65.6449 373.357 66.1903 374.499 67.2812C375.658 68.3551 376.238 69.642 376.238 71.142C376.238 72.6591 375.658 73.9631 374.499 75.054C373.357 76.1278 371.977 76.6648 370.357 76.6648ZM395.702 121.741C393.196 121.741 390.963 121.307 389.003 120.438C387.043 119.551 385.491 118.247 384.349 116.526C383.224 114.787 382.662 112.622 382.662 110.031C382.662 107.849 383.063 106.017 383.864 104.534C384.665 103.051 385.756 101.858 387.136 100.955C388.517 100.051 390.085 99.3693 391.841 98.9091C393.614 98.4489 395.472 98.125 397.415 97.9375C399.699 97.6989 401.54 97.4773 402.938 97.2727C404.335 97.0511 405.349 96.7273 405.98 96.3011C406.611 95.875 406.926 95.2443 406.926 94.4091V94.2557C406.926 92.6364 406.415 91.3835 405.392 90.4972C404.386 89.6108 402.955 89.1676 401.097 89.1676C399.136 89.1676 397.577 89.6023 396.418 90.4716C395.259 91.3239 394.491 92.3977 394.116 93.6932L384.043 92.875C384.554 90.4886 385.56 88.4261 387.06 86.6875C388.56 84.9318 390.494 83.5852 392.864 82.6477C395.25 81.6932 398.011 81.2159 401.148 81.2159C403.33 81.2159 405.418 81.4716 407.412 81.983C409.423 82.4943 411.205 83.2869 412.756 84.3608C414.324 85.4347 415.56 86.8153 416.463 88.5028C417.366 90.1733 417.818 92.1761 417.818 94.5114V121H407.489V115.554H407.182C406.551 116.781 405.707 117.864 404.651 118.801C403.594 119.722 402.324 120.446 400.841 120.974C399.358 121.486 397.645 121.741 395.702 121.741ZM398.821 114.224C400.423 114.224 401.838 113.909 403.065 113.278C404.293 112.631 405.256 111.761 405.955 110.67C406.653 109.58 407.003 108.344 407.003 106.963V102.795C406.662 103.017 406.193 103.222 405.597 103.409C405.017 103.58 404.361 103.741 403.628 103.895C402.895 104.031 402.162 104.159 401.429 104.278C400.696 104.381 400.031 104.474 399.435 104.56C398.156 104.747 397.04 105.045 396.085 105.455C395.131 105.864 394.389 106.418 393.861 107.116C393.332 107.798 393.068 108.651 393.068 109.673C393.068 111.156 393.605 112.29 394.679 113.074C395.77 113.841 397.151 114.224 398.821 114.224ZM461.7 121H443.137V68.6364H461.853C467.12 68.6364 471.654 69.6847 475.455 71.7812C479.256 73.8608 482.18 76.8523 484.225 80.7557C486.288 84.6591 487.319 89.3295 487.319 94.767C487.319 100.222 486.288 104.909 484.225 108.83C482.18 112.75 479.239 115.759 475.404 117.855C471.586 119.952 467.018 121 461.7 121ZM454.208 111.514H461.239C464.512 111.514 467.265 110.935 469.498 109.776C471.748 108.599 473.435 106.784 474.56 104.33C475.702 101.858 476.273 98.6705 476.273 94.767C476.273 90.8977 475.702 87.7358 474.56 85.2812C473.435 82.8267 471.756 81.0199 469.523 79.8608C467.29 78.7017 464.538 78.1222 461.265 78.1222H454.208V111.514ZM513.213 121.767C509.173 121.767 505.696 120.949 502.781 119.312C499.884 117.659 497.651 115.324 496.082 112.307C494.514 109.273 493.73 105.685 493.73 101.543C493.73 97.5028 494.514 93.9574 496.082 90.9062C497.651 87.8551 499.858 85.4773 502.705 83.7727C505.568 82.0682 508.926 81.2159 512.778 81.2159C515.369 81.2159 517.781 81.6335 520.014 82.4688C522.264 83.2869 524.224 84.5227 525.895 86.1761C527.582 87.8295 528.895 89.9091 529.832 92.4148C530.77 94.9034 531.239 97.8182 531.239 101.159V104.151H498.077V97.4006H520.986C520.986 95.8324 520.645 94.4432 519.963 93.233C519.281 92.0227 518.335 91.0767 517.125 90.3949C515.932 89.696 514.543 89.3466 512.957 89.3466C511.304 89.3466 509.838 89.7301 508.56 90.4972C507.298 91.2472 506.31 92.2614 505.594 93.5398C504.878 94.8011 504.511 96.2074 504.494 97.7585V104.176C504.494 106.119 504.852 107.798 505.568 109.213C506.301 110.628 507.332 111.719 508.662 112.486C509.991 113.253 511.568 113.636 513.392 113.636C514.602 113.636 515.71 113.466 516.716 113.125C517.722 112.784 518.582 112.273 519.298 111.591C520.014 110.909 520.56 110.074 520.935 109.085L531.009 109.75C530.497 112.17 529.449 114.284 527.864 116.091C526.295 117.881 524.267 119.278 521.778 120.284C519.307 121.273 516.452 121.767 513.213 121.767ZM571.023 92.9261L561.051 93.5398C560.881 92.6875 560.514 91.9205 559.952 91.2386C559.389 90.5398 558.648 89.9858 557.727 89.5767C556.824 89.1506 555.741 88.9375 554.48 88.9375C552.793 88.9375 551.369 89.2955 550.21 90.0114C549.051 90.7102 548.472 91.6477 548.472 92.8239C548.472 93.7614 548.847 94.554 549.597 95.2017C550.347 95.8494 551.634 96.3693 553.457 96.7614L560.565 98.1932C564.384 98.9773 567.23 100.239 569.105 101.977C570.98 103.716 571.918 106 571.918 108.83C571.918 111.403 571.159 113.662 569.642 115.605C568.142 117.548 566.08 119.065 563.455 120.156C560.847 121.23 557.838 121.767 554.429 121.767C549.23 121.767 545.088 120.685 542.003 118.52C538.935 116.338 537.136 113.372 536.608 109.622L547.321 109.06C547.645 110.645 548.429 111.855 549.673 112.69C550.918 113.509 552.511 113.918 554.455 113.918C556.364 113.918 557.898 113.551 559.057 112.818C560.233 112.068 560.83 111.105 560.847 109.929C560.83 108.94 560.412 108.131 559.594 107.5C558.776 106.852 557.514 106.358 555.81 106.017L549.009 104.662C545.173 103.895 542.318 102.565 540.443 100.673C538.585 98.7812 537.656 96.3693 537.656 93.4375C537.656 90.9148 538.338 88.7415 539.702 86.9176C541.082 85.0938 543.017 83.6875 545.506 82.6989C548.011 81.7102 550.943 81.2159 554.301 81.2159C559.261 81.2159 563.165 82.2642 566.011 84.3608C568.875 86.4574 570.545 89.3125 571.023 92.9261ZM578.776 121V81.7273H589.668V121H578.776ZM584.248 76.6648C582.629 76.6648 581.239 76.1278 580.08 75.054C578.938 73.9631 578.367 72.6591 578.367 71.142C578.367 69.642 578.938 68.3551 580.08 67.2812C581.239 66.1903 582.629 65.6449 584.248 65.6449C585.867 65.6449 587.248 66.1903 588.39 67.2812C589.549 68.3551 590.129 69.642 590.129 71.142C590.129 72.6591 589.549 73.9631 588.39 75.054C587.248 76.1278 585.867 76.6648 584.248 76.6648ZM616.087 136.545C612.558 136.545 609.533 136.06 607.01 135.088C604.504 134.134 602.51 132.83 601.027 131.176C599.544 129.523 598.581 127.665 598.138 125.602L608.212 124.247C608.518 125.031 609.004 125.764 609.669 126.446C610.334 127.128 611.212 127.673 612.303 128.082C613.411 128.509 614.757 128.722 616.342 128.722C618.712 128.722 620.663 128.142 622.197 126.983C623.749 125.841 624.524 123.923 624.524 121.23V114.045H624.064C623.587 115.136 622.871 116.168 621.916 117.139C620.962 118.111 619.734 118.903 618.234 119.517C616.734 120.131 614.945 120.438 612.865 120.438C609.916 120.438 607.232 119.756 604.811 118.392C602.408 117.011 600.49 114.906 599.058 112.077C597.643 109.23 596.936 105.634 596.936 101.287C596.936 96.8381 597.661 93.1222 599.109 90.1392C600.558 87.1562 602.484 84.9233 604.888 83.4403C607.308 81.9574 609.959 81.2159 612.839 81.2159C615.038 81.2159 616.879 81.5909 618.362 82.3409C619.845 83.0739 621.038 83.9943 621.942 85.1023C622.862 86.1932 623.57 87.267 624.064 88.3239H624.473V81.7273H635.288V121.384C635.288 124.724 634.47 127.52 632.834 129.77C631.197 132.02 628.93 133.707 626.033 134.832C623.152 135.974 619.837 136.545 616.087 136.545ZM616.317 112.256C618.072 112.256 619.555 111.821 620.766 110.952C621.993 110.065 622.93 108.804 623.578 107.168C624.243 105.514 624.575 103.537 624.575 101.236C624.575 98.9347 624.251 96.9403 623.604 95.2528C622.956 93.5483 622.018 92.2273 620.791 91.2898C619.564 90.3523 618.072 89.8835 616.317 89.8835C614.527 89.8835 613.018 90.3693 611.791 91.3409C610.564 92.2955 609.635 93.625 609.004 95.3295C608.374 97.0341 608.058 99.0028 608.058 101.236C608.058 103.503 608.374 105.463 609.004 107.116C609.652 108.753 610.581 110.023 611.791 110.926C613.018 111.812 614.527 112.256 616.317 112.256ZM654.848 98.2955V121H643.956V81.7273H654.337V88.6562H654.797C655.666 86.3722 657.124 84.5653 659.169 83.2358C661.214 81.8892 663.695 81.2159 666.609 81.2159C669.337 81.2159 671.714 81.8125 673.743 83.0057C675.771 84.1989 677.348 85.9034 678.473 88.1193C679.598 90.3182 680.161 92.9432 680.161 95.9943V121H669.268V97.9375C669.286 95.5341 668.672 93.6591 667.428 92.3125C666.183 90.9489 664.47 90.267 662.288 90.267C660.822 90.267 659.527 90.5824 658.402 91.2131C657.294 91.8437 656.425 92.7642 655.794 93.9744C655.18 95.1676 654.865 96.608 654.848 98.2955ZM734.02 83.696C733.815 81.6335 732.938 80.0312 731.386 78.8892C729.835 77.7472 727.73 77.1761 725.071 77.1761C723.264 77.1761 721.739 77.4318 720.494 77.9432C719.25 78.4375 718.295 79.1278 717.631 80.0142C716.983 80.9006 716.659 81.9062 716.659 83.0312C716.625 83.9688 716.821 84.7869 717.247 85.4858C717.69 86.1847 718.295 86.7898 719.062 87.3011C719.83 87.7955 720.716 88.2301 721.722 88.6051C722.727 88.9631 723.801 89.2699 724.943 89.5256L729.648 90.6506C731.932 91.1619 734.028 91.8437 735.938 92.696C737.847 93.5483 739.5 94.5966 740.898 95.8409C742.295 97.0852 743.378 98.5511 744.145 100.239C744.929 101.926 745.33 103.861 745.347 106.043C745.33 109.247 744.511 112.026 742.892 114.378C741.29 116.713 738.972 118.528 735.938 119.824C732.92 121.102 729.281 121.741 725.02 121.741C720.793 121.741 717.111 121.094 713.974 119.798C710.855 118.503 708.418 116.585 706.662 114.045C704.923 111.489 704.011 108.327 703.926 104.56H714.639C714.759 106.315 715.261 107.781 716.148 108.957C717.051 110.116 718.253 110.994 719.753 111.591C721.27 112.17 722.983 112.46 724.892 112.46C726.767 112.46 728.395 112.187 729.776 111.642C731.173 111.097 732.256 110.338 733.023 109.366C733.79 108.395 734.173 107.278 734.173 106.017C734.173 104.841 733.824 103.852 733.125 103.051C732.443 102.25 731.438 101.568 730.108 101.006C728.795 100.443 727.185 99.9318 725.276 99.4716L719.574 98.0398C715.159 96.9659 711.673 95.2869 709.116 93.0028C706.56 90.7187 705.29 87.642 705.307 83.7727C705.29 80.6023 706.134 77.8324 707.838 75.4631C709.56 73.0938 711.92 71.2443 714.92 69.9148C717.92 68.5852 721.33 67.9205 725.148 67.9205C729.034 67.9205 732.426 68.5852 735.324 69.9148C738.239 71.2443 740.506 73.0938 742.125 75.4631C743.744 77.8324 744.58 80.5767 744.631 83.696H734.02ZM759.313 135.727C757.933 135.727 756.637 135.616 755.427 135.395C754.234 135.19 753.245 134.926 752.461 134.602L754.915 126.472C756.194 126.864 757.344 127.077 758.367 127.111C759.407 127.145 760.302 126.906 761.052 126.395C761.819 125.884 762.441 125.014 762.918 123.787L763.558 122.125L749.469 81.7273H760.924L769.055 110.568H769.464L777.671 81.7273H789.202L773.938 125.244C773.205 127.358 772.208 129.199 770.947 130.767C769.702 132.352 768.126 133.571 766.217 134.423C764.308 135.293 762.006 135.727 759.313 135.727ZM827.452 92.9261L817.481 93.5398C817.31 92.6875 816.944 91.9205 816.381 91.2386C815.819 90.5398 815.077 89.9858 814.157 89.5767C813.254 89.1506 812.171 88.9375 810.91 88.9375C809.222 88.9375 807.799 89.2955 806.64 90.0114C805.481 90.7102 804.901 91.6477 804.901 92.8239C804.901 93.7614 805.276 94.554 806.026 95.2017C806.776 95.8494 808.063 96.3693 809.887 96.7614L816.995 98.1932C820.813 98.9773 823.66 100.239 825.535 101.977C827.41 103.716 828.347 106 828.347 108.83C828.347 111.403 827.589 113.662 826.072 115.605C824.572 117.548 822.509 119.065 819.884 120.156C817.276 121.23 814.268 121.767 810.859 121.767C805.66 121.767 801.518 120.685 798.433 118.52C795.364 116.338 793.566 113.372 793.038 109.622L803.751 109.06C804.075 110.645 804.859 111.855 806.103 112.69C807.347 113.509 808.941 113.918 810.884 113.918C812.793 113.918 814.327 113.551 815.487 112.818C816.663 112.068 817.259 111.105 817.276 109.929C817.259 108.94 816.842 108.131 816.023 107.5C815.205 106.852 813.944 106.358 812.239 106.017L805.438 104.662C801.603 103.895 798.748 102.565 796.873 100.673C795.015 98.7812 794.086 96.3693 794.086 93.4375C794.086 90.9148 794.768 88.7415 796.131 86.9176C797.512 85.0938 799.447 83.6875 801.935 82.6989C804.441 81.7102 807.373 81.2159 810.731 81.2159C815.691 81.2159 819.594 82.2642 822.441 84.3608C825.305 86.4574 826.975 89.3125 827.452 92.9261ZM856.095 81.7273V89.9091H832.445V81.7273H856.095ZM837.814 72.3182H848.706V108.932C848.706 109.937 848.859 110.722 849.166 111.284C849.473 111.83 849.899 112.213 850.445 112.435C851.007 112.656 851.655 112.767 852.388 112.767C852.899 112.767 853.411 112.724 853.922 112.639C854.433 112.537 854.825 112.46 855.098 112.409L856.811 120.514C856.266 120.685 855.499 120.881 854.51 121.102C853.521 121.341 852.32 121.486 850.905 121.537C848.28 121.639 845.979 121.29 844.001 120.489C842.041 119.687 840.516 118.443 839.425 116.756C838.334 115.068 837.797 112.937 837.814 110.364V72.3182ZM880.666 121.767C876.626 121.767 873.149 120.949 870.234 119.312C867.337 117.659 865.104 115.324 863.536 112.307C861.967 109.273 861.183 105.685 861.183 101.543C861.183 97.5028 861.967 93.9574 863.536 90.9062C865.104 87.8551 867.311 85.4773 870.158 83.7727C873.021 82.0682 876.379 81.2159 880.232 81.2159C882.822 81.2159 885.234 81.6335 887.467 82.4688C889.717 83.2869 891.678 84.5227 893.348 86.1761C895.036 87.8295 896.348 89.9091 897.286 92.4148C898.223 94.9034 898.692 97.8182 898.692 101.159V104.151H865.53V97.4006H888.439C888.439 95.8324 888.098 94.4432 887.416 93.233C886.734 92.0227 885.788 91.0767 884.578 90.3949C883.385 89.696 881.996 89.3466 880.411 89.3466C878.757 89.3466 877.291 89.7301 876.013 90.4972C874.751 91.2472 873.763 92.2614 873.047 93.5398C872.331 94.8011 871.964 96.2074 871.947 97.7585V104.176C871.947 106.119 872.305 107.798 873.021 109.213C873.754 110.628 874.786 111.719 876.115 112.486C877.445 113.253 879.021 113.636 880.845 113.636C882.055 113.636 883.163 113.466 884.169 113.125C885.175 112.784 886.036 112.273 886.751 111.591C887.467 110.909 888.013 110.074 888.388 109.085L898.462 109.75C897.95 112.17 896.902 114.284 895.317 116.091C893.749 117.881 891.72 119.278 889.232 120.284C886.76 121.273 883.905 121.767 880.666 121.767ZM905.8 121V81.7273H916.18V88.6562H916.641C917.459 86.3551 918.822 84.5398 920.732 83.2102C922.641 81.8807 924.925 81.2159 927.584 81.2159C930.277 81.2159 932.57 81.8892 934.462 83.2358C936.354 84.5653 937.615 86.3722 938.246 88.6562H938.655C939.456 86.4062 940.905 84.608 943.001 83.2614C945.115 81.8977 947.612 81.2159 950.493 81.2159C954.158 81.2159 957.132 82.3835 959.416 84.7188C961.717 87.0369 962.868 90.3267 962.868 94.5881V121H952.001V96.7358C952.001 94.554 951.422 92.9176 950.263 91.8267C949.104 90.7358 947.655 90.1903 945.916 90.1903C943.939 90.1903 942.396 90.821 941.288 92.0824C940.18 93.3267 939.626 94.9716 939.626 97.017V121H929.067V96.5057C929.067 94.5795 928.513 93.0455 927.405 91.9034C926.314 90.7614 924.874 90.1903 923.084 90.1903C921.874 90.1903 920.783 90.4972 919.811 91.1108C918.857 91.7074 918.098 92.5511 917.536 93.642C916.973 94.7159 916.692 95.9773 916.692 97.4261V121H905.8Z" fill="black"/>
</g>
<g filter="url(#filter1_d_2_52)">
<path d="M269.28 176H264.666L271.696 155.636H277.244L284.264 176H279.651L274.55 160.29H274.391L269.28 176ZM268.991 167.996H279.889V171.357H268.991V167.996ZM298.744 176.249C297.584 176.249 296.533 175.95 295.592 175.354C294.657 174.75 293.915 173.866 293.365 172.699C292.821 171.526 292.549 170.087 292.549 168.384C292.549 166.634 292.831 165.179 293.395 164.018C293.958 162.852 294.707 161.98 295.642 161.403C296.583 160.82 297.614 160.528 298.734 160.528C299.589 160.528 300.302 160.674 300.872 160.966C301.449 161.251 301.913 161.609 302.264 162.04C302.622 162.464 302.894 162.882 303.079 163.293H303.208V155.636H307.434V176H303.258V173.554H303.079C302.88 173.978 302.599 174.399 302.234 174.817C301.876 175.228 301.409 175.569 300.832 175.841C300.262 176.113 299.566 176.249 298.744 176.249ZM300.086 172.878C300.769 172.878 301.346 172.692 301.816 172.321C302.294 171.943 302.658 171.416 302.91 170.74C303.169 170.064 303.298 169.272 303.298 168.364C303.298 167.455 303.172 166.667 302.92 165.997C302.668 165.328 302.304 164.811 301.826 164.446C301.349 164.081 300.769 163.899 300.086 163.899C299.39 163.899 298.804 164.088 298.326 164.466C297.849 164.844 297.488 165.367 297.243 166.037C296.997 166.706 296.875 167.482 296.875 168.364C296.875 169.252 296.997 170.037 297.243 170.72C297.494 171.396 297.856 171.927 298.326 172.311C298.804 172.689 299.39 172.878 300.086 172.878ZM317.877 176.298C316.306 176.298 314.954 175.98 313.82 175.344C312.693 174.701 311.825 173.793 311.215 172.619C310.605 171.439 310.3 170.044 310.3 168.433C310.3 166.862 310.605 165.483 311.215 164.297C311.825 163.11 312.683 162.186 313.79 161.523C314.904 160.86 316.21 160.528 317.708 160.528C318.716 160.528 319.654 160.691 320.522 161.016C321.397 161.334 322.159 161.814 322.809 162.457C323.465 163.1 323.976 163.909 324.34 164.884C324.705 165.851 324.887 166.985 324.887 168.284V169.447H311.991V166.822H320.9C320.9 166.213 320.767 165.672 320.502 165.202C320.237 164.731 319.869 164.363 319.398 164.098C318.934 163.826 318.394 163.69 317.778 163.69C317.135 163.69 316.565 163.839 316.067 164.138C315.577 164.429 315.192 164.824 314.914 165.321C314.636 165.812 314.493 166.358 314.487 166.962V169.457C314.487 170.213 314.626 170.866 314.904 171.416C315.189 171.966 315.59 172.391 316.107 172.689C316.624 172.987 317.237 173.136 317.947 173.136C318.417 173.136 318.848 173.07 319.239 172.938C319.63 172.805 319.965 172.606 320.244 172.341C320.522 172.076 320.734 171.751 320.88 171.366L324.798 171.625C324.599 172.566 324.191 173.388 323.575 174.091C322.965 174.787 322.176 175.33 321.208 175.722C320.247 176.106 319.137 176.298 317.877 176.298ZM340.359 165.082L336.481 165.321C336.415 164.99 336.272 164.691 336.053 164.426C335.835 164.154 335.546 163.939 335.188 163.78C334.837 163.614 334.416 163.531 333.925 163.531C333.269 163.531 332.716 163.67 332.265 163.949C331.814 164.221 331.589 164.585 331.589 165.043C331.589 165.407 331.735 165.715 332.026 165.967C332.318 166.219 332.818 166.421 333.528 166.574L336.292 167.131C337.777 167.436 338.884 167.926 339.613 168.602C340.342 169.278 340.707 170.167 340.707 171.267C340.707 172.268 340.412 173.146 339.822 173.902C339.238 174.658 338.436 175.248 337.415 175.672C336.401 176.089 335.231 176.298 333.906 176.298C331.884 176.298 330.273 175.877 329.073 175.036C327.88 174.187 327.181 173.034 326.975 171.575L331.141 171.357C331.267 171.973 331.572 172.444 332.056 172.768C332.54 173.087 333.16 173.246 333.915 173.246C334.658 173.246 335.254 173.103 335.705 172.818C336.163 172.527 336.395 172.152 336.401 171.695C336.395 171.31 336.232 170.995 335.914 170.75C335.596 170.498 335.105 170.306 334.442 170.173L331.798 169.646C330.306 169.348 329.196 168.831 328.467 168.095C327.744 167.359 327.383 166.421 327.383 165.281C327.383 164.3 327.648 163.455 328.178 162.746C328.715 162.036 329.468 161.49 330.435 161.105C331.41 160.721 332.55 160.528 333.856 160.528C335.785 160.528 337.303 160.936 338.41 161.751C339.523 162.567 340.173 163.677 340.359 165.082ZM343.374 176V160.727H347.61V176H343.374ZM345.502 158.759C344.872 158.759 344.332 158.55 343.881 158.132C343.437 157.708 343.215 157.201 343.215 156.611C343.215 156.027 343.437 155.527 343.881 155.109C344.332 154.685 344.872 154.473 345.502 154.473C346.132 154.473 346.668 154.685 347.113 155.109C347.563 155.527 347.789 156.027 347.789 156.611C347.789 157.201 347.563 157.708 347.113 158.132C346.668 158.55 346.132 158.759 345.502 158.759ZM357.884 182.045C356.511 182.045 355.335 181.857 354.354 181.479C353.379 181.107 352.604 180.6 352.027 179.957C351.45 179.314 351.076 178.592 350.903 177.79L354.821 177.263C354.94 177.568 355.129 177.853 355.388 178.118C355.646 178.383 355.988 178.595 356.412 178.754C356.843 178.92 357.366 179.003 357.983 179.003C358.904 179.003 359.663 178.777 360.26 178.327C360.863 177.883 361.165 177.137 361.165 176.089V173.295H360.986C360.8 173.72 360.522 174.121 360.151 174.499C359.779 174.876 359.302 175.185 358.719 175.423C358.135 175.662 357.439 175.781 356.631 175.781C355.484 175.781 354.44 175.516 353.499 174.986C352.564 174.449 351.818 173.63 351.261 172.53C350.711 171.423 350.436 170.024 350.436 168.334C350.436 166.604 350.718 165.159 351.281 163.999C351.845 162.839 352.594 161.97 353.528 161.393C354.47 160.817 355.5 160.528 356.621 160.528C357.476 160.528 358.192 160.674 358.768 160.966C359.345 161.251 359.809 161.609 360.161 162.04C360.518 162.464 360.794 162.882 360.986 163.293H361.145V160.727H365.351V176.149C365.351 177.448 365.033 178.536 364.396 179.411C363.76 180.286 362.878 180.942 361.751 181.379C360.631 181.823 359.342 182.045 357.884 182.045ZM357.973 172.599C358.656 172.599 359.232 172.43 359.703 172.092C360.18 171.748 360.545 171.257 360.797 170.621C361.055 169.978 361.185 169.209 361.185 168.314C361.185 167.419 361.059 166.643 360.807 165.987C360.555 165.324 360.19 164.811 359.713 164.446C359.236 164.081 358.656 163.899 357.973 163.899C357.277 163.899 356.69 164.088 356.213 164.466C355.736 164.837 355.375 165.354 355.129 166.017C354.884 166.68 354.761 167.446 354.761 168.314C354.761 169.196 354.884 169.958 355.129 170.601C355.381 171.237 355.742 171.731 356.213 172.082C356.69 172.427 357.277 172.599 357.973 172.599ZM372.957 167.17V176H368.722V160.727H372.759V163.422H372.938C373.276 162.534 373.842 161.831 374.638 161.314C375.433 160.79 376.398 160.528 377.531 160.528C378.592 160.528 379.517 160.76 380.305 161.224C381.094 161.688 381.707 162.351 382.145 163.213C382.582 164.068 382.801 165.089 382.801 166.276V176H378.565V167.031C378.572 166.097 378.333 165.367 377.849 164.844C377.366 164.313 376.699 164.048 375.851 164.048C375.281 164.048 374.777 164.171 374.339 164.416C373.909 164.661 373.571 165.019 373.325 165.49C373.087 165.954 372.964 166.514 372.957 167.17ZM405.327 165.082L401.45 165.321C401.383 164.99 401.241 164.691 401.022 164.426C400.803 164.154 400.515 163.939 400.157 163.78C399.806 163.614 399.385 163.531 398.894 163.531C398.238 163.531 397.684 163.67 397.234 163.949C396.783 164.221 396.558 164.585 396.558 165.043C396.558 165.407 396.703 165.715 396.995 165.967C397.287 166.219 397.787 166.421 398.496 166.574L401.261 167.131C402.746 167.436 403.853 167.926 404.582 168.602C405.311 169.278 405.675 170.167 405.675 171.267C405.675 172.268 405.38 173.146 404.79 173.902C404.207 174.658 403.405 175.248 402.384 175.672C401.37 176.089 400.2 176.298 398.874 176.298C396.853 176.298 395.242 175.877 394.042 175.036C392.849 174.187 392.149 173.034 391.944 171.575L396.11 171.357C396.236 171.973 396.541 172.444 397.025 172.768C397.509 173.087 398.129 173.246 398.884 173.246C399.627 173.246 400.223 173.103 400.674 172.818C401.131 172.527 401.363 172.152 401.37 171.695C401.363 171.31 401.201 170.995 400.883 170.75C400.565 170.498 400.074 170.306 399.411 170.173L396.766 169.646C395.275 169.348 394.165 168.831 393.435 168.095C392.713 167.359 392.352 166.421 392.352 165.281C392.352 164.3 392.617 163.455 393.147 162.746C393.684 162.036 394.436 161.49 395.404 161.105C396.379 160.721 397.519 160.528 398.825 160.528C400.754 160.528 402.272 160.936 403.379 161.751C404.492 162.567 405.142 163.677 405.327 165.082ZM410.958 181.727C410.421 181.727 409.917 181.684 409.446 181.598C408.982 181.518 408.598 181.416 408.293 181.29L409.248 178.128C409.745 178.28 410.192 178.363 410.59 178.376C410.994 178.39 411.342 178.297 411.634 178.098C411.932 177.899 412.174 177.561 412.36 177.084L412.608 176.438L407.13 160.727H411.584L414.746 171.943H414.905L418.097 160.727H422.581L416.645 177.651C416.36 178.473 415.972 179.188 415.482 179.798C414.998 180.415 414.385 180.889 413.642 181.22C412.9 181.558 412.005 181.727 410.958 181.727ZM437.456 165.082L433.578 165.321C433.512 164.99 433.37 164.691 433.151 164.426C432.932 164.154 432.644 163.939 432.286 163.78C431.935 163.614 431.514 163.531 431.023 163.531C430.367 163.531 429.813 163.67 429.363 163.949C428.912 164.221 428.686 164.585 428.686 165.043C428.686 165.407 428.832 165.715 429.124 165.967C429.416 166.219 429.916 166.421 430.625 166.574L433.39 167.131C434.874 167.436 435.981 167.926 436.711 168.602C437.44 169.278 437.804 170.167 437.804 171.267C437.804 172.268 437.509 173.146 436.919 173.902C436.336 174.658 435.534 175.248 434.513 175.672C433.499 176.089 432.329 176.298 431.003 176.298C428.981 176.298 427.371 175.877 426.171 175.036C424.978 174.187 424.278 173.034 424.073 171.575L428.239 171.357C428.365 171.973 428.67 172.444 429.154 172.768C429.638 173.087 430.257 173.246 431.013 173.246C431.756 173.246 432.352 173.103 432.803 172.818C433.26 172.527 433.492 172.152 433.499 171.695C433.492 171.31 433.33 170.995 433.012 170.75C432.694 170.498 432.203 170.306 431.54 170.173L428.895 169.646C427.404 169.348 426.293 168.831 425.564 168.095C424.842 167.359 424.48 166.421 424.48 165.281C424.48 164.3 424.746 163.455 425.276 162.746C425.813 162.036 426.565 161.49 427.533 161.105C428.507 160.721 429.648 160.528 430.953 160.528C432.882 160.528 434.4 160.936 435.507 161.751C436.621 162.567 437.271 163.677 437.456 165.082ZM448.595 160.727V163.909H439.398V160.727H448.595ZM441.486 157.068H445.722V171.307C445.722 171.698 445.781 172.003 445.901 172.222C446.02 172.434 446.186 172.583 446.398 172.669C446.616 172.755 446.868 172.798 447.153 172.798C447.352 172.798 447.551 172.782 447.75 172.749C447.949 172.709 448.101 172.679 448.207 172.659L448.874 175.811C448.661 175.877 448.363 175.954 447.979 176.04C447.594 176.133 447.127 176.189 446.577 176.209C445.556 176.249 444.661 176.113 443.892 175.801C443.13 175.49 442.536 175.006 442.112 174.349C441.688 173.693 441.479 172.865 441.486 171.864V157.068ZM458.151 176.298C456.58 176.298 455.227 175.98 454.094 175.344C452.967 174.701 452.098 173.793 451.489 172.619C450.879 171.439 450.574 170.044 450.574 168.433C450.574 166.862 450.879 165.483 451.489 164.297C452.098 163.11 452.957 162.186 454.064 161.523C455.178 160.86 456.483 160.528 457.982 160.528C458.989 160.528 459.927 160.691 460.795 161.016C461.67 161.334 462.433 161.814 463.082 162.457C463.739 163.1 464.249 163.909 464.614 164.884C464.978 165.851 465.161 166.985 465.161 168.284V169.447H452.264V166.822H461.173C461.173 166.213 461.041 165.672 460.776 165.202C460.51 164.731 460.143 164.363 459.672 164.098C459.208 163.826 458.668 163.69 458.051 163.69C457.408 163.69 456.838 163.839 456.341 164.138C455.85 164.429 455.466 164.824 455.188 165.321C454.909 165.812 454.767 166.358 454.76 166.962V169.457C454.76 170.213 454.899 170.866 455.178 171.416C455.463 171.966 455.864 172.391 456.381 172.689C456.898 172.987 457.511 173.136 458.22 173.136C458.691 173.136 459.122 173.07 459.513 172.938C459.904 172.805 460.239 172.606 460.517 172.341C460.795 172.076 461.008 171.751 461.153 171.366L465.071 171.625C464.872 172.566 464.464 173.388 463.848 174.091C463.238 174.787 462.449 175.33 461.482 175.722C460.52 176.106 459.41 176.298 458.151 176.298ZM467.925 176V160.727H471.962V163.422H472.141C472.459 162.527 472.989 161.821 473.732 161.304C474.474 160.787 475.362 160.528 476.396 160.528C477.444 160.528 478.335 160.79 479.071 161.314C479.807 161.831 480.297 162.534 480.543 163.422H480.702C481.013 162.547 481.577 161.848 482.392 161.324C483.214 160.794 484.185 160.528 485.305 160.528C486.731 160.528 487.887 160.982 488.776 161.891C489.67 162.792 490.118 164.071 490.118 165.729V176H485.892V166.564C485.892 165.715 485.667 165.079 485.216 164.655C484.765 164.231 484.202 164.018 483.526 164.018C482.757 164.018 482.157 164.264 481.726 164.754C481.295 165.238 481.08 165.878 481.08 166.673V176H476.973V166.474C476.973 165.725 476.758 165.129 476.327 164.685C475.902 164.241 475.342 164.018 474.646 164.018C474.176 164.018 473.751 164.138 473.374 164.376C473.002 164.608 472.707 164.937 472.489 165.361C472.27 165.778 472.161 166.269 472.161 166.832V176H467.925ZM508.157 160.727V163.909H498.731V160.727H508.157ZM500.889 176V159.624C500.889 158.517 501.104 157.598 501.535 156.869C501.973 156.14 502.569 155.593 503.325 155.229C504.081 154.864 504.939 154.682 505.9 154.682C506.55 154.682 507.143 154.732 507.68 154.831C508.224 154.93 508.628 155.02 508.893 155.099L508.137 158.281C507.972 158.228 507.766 158.179 507.521 158.132C507.282 158.086 507.037 158.062 506.785 158.062C506.162 158.062 505.728 158.208 505.483 158.5C505.237 158.785 505.115 159.186 505.115 159.703V176H500.889ZM517.099 176.298C515.554 176.298 514.219 175.97 513.092 175.314C511.971 174.651 511.106 173.73 510.496 172.55C509.887 171.363 509.582 169.988 509.582 168.423C509.582 166.846 509.887 165.467 510.496 164.287C511.106 163.1 511.971 162.179 513.092 161.523C514.219 160.86 515.554 160.528 517.099 160.528C518.643 160.528 519.976 160.86 521.096 161.523C522.223 162.179 523.091 163.1 523.701 164.287C524.311 165.467 524.616 166.846 524.616 168.423C524.616 169.988 524.311 171.363 523.701 172.55C523.091 173.73 522.223 174.651 521.096 175.314C519.976 175.97 518.643 176.298 517.099 176.298ZM517.119 173.017C517.821 173.017 518.408 172.818 518.879 172.42C519.349 172.016 519.704 171.466 519.942 170.77C520.188 170.074 520.31 169.282 520.31 168.393C520.31 167.505 520.188 166.713 519.942 166.017C519.704 165.321 519.349 164.771 518.879 164.366C518.408 163.962 517.821 163.76 517.119 163.76C516.409 163.76 515.813 163.962 515.329 164.366C514.852 164.771 514.49 165.321 514.245 166.017C514.006 166.713 513.887 167.505 513.887 168.393C513.887 169.282 514.006 170.074 514.245 170.77C514.49 171.466 514.852 172.016 515.329 172.42C515.813 172.818 516.409 173.017 517.119 173.017ZM527.37 176V160.727H531.477V163.392H531.636C531.914 162.444 532.381 161.728 533.038 161.244C533.694 160.754 534.45 160.509 535.305 160.509C535.517 160.509 535.746 160.522 535.991 160.548C536.236 160.575 536.451 160.611 536.637 160.658V164.416C536.438 164.357 536.163 164.304 535.812 164.257C535.46 164.211 535.139 164.188 534.847 164.188C534.224 164.188 533.667 164.323 533.177 164.595C532.693 164.86 532.308 165.232 532.023 165.709C531.745 166.186 531.606 166.736 531.606 167.359V176H527.37ZM545.387 176V155.636H549.623V163.293H549.752C549.938 162.882 550.206 162.464 550.558 162.04C550.915 161.609 551.379 161.251 551.95 160.966C552.526 160.674 553.242 160.528 554.097 160.528C555.211 160.528 556.238 160.82 557.18 161.403C558.121 161.98 558.873 162.852 559.437 164.018C560 165.179 560.282 166.634 560.282 168.384C560.282 170.087 560.007 171.526 559.457 172.699C558.913 173.866 558.171 174.75 557.229 175.354C556.295 175.95 555.247 176.249 554.087 176.249C553.265 176.249 552.566 176.113 551.989 175.841C551.419 175.569 550.952 175.228 550.587 174.817C550.223 174.399 549.944 173.978 549.752 173.554H549.563V176H545.387ZM549.533 168.364C549.533 169.272 549.659 170.064 549.911 170.74C550.163 171.416 550.528 171.943 551.005 172.321C551.482 172.692 552.062 172.878 552.745 172.878C553.434 172.878 554.018 172.689 554.495 172.311C554.972 171.927 555.334 171.396 555.579 170.72C555.831 170.037 555.957 169.252 555.957 168.364C555.957 167.482 555.834 166.706 555.589 166.037C555.344 165.367 554.982 164.844 554.505 164.466C554.028 164.088 553.441 163.899 552.745 163.899C552.056 163.899 551.472 164.081 550.995 164.446C550.524 164.811 550.163 165.328 549.911 165.997C549.659 166.667 549.533 167.455 549.533 168.364ZM572.902 169.497V160.727H577.138V176H573.071V173.226H572.912C572.568 174.121 571.994 174.84 571.192 175.384C570.397 175.927 569.426 176.199 568.279 176.199C567.258 176.199 566.36 175.967 565.584 175.503C564.809 175.039 564.202 174.379 563.765 173.524C563.334 172.669 563.115 171.645 563.108 170.452V160.727H567.344V169.696C567.351 170.598 567.593 171.31 568.07 171.834C568.547 172.357 569.187 172.619 569.989 172.619C570.499 172.619 570.977 172.503 571.421 172.271C571.865 172.033 572.223 171.681 572.495 171.217C572.773 170.753 572.909 170.18 572.902 169.497ZM580.526 176V160.727H584.762V176H580.526ZM582.654 158.759C582.024 158.759 581.484 158.55 581.033 158.132C580.589 157.708 580.367 157.201 580.367 156.611C580.367 156.027 580.589 155.527 581.033 155.109C581.484 154.685 582.024 154.473 582.654 154.473C583.284 154.473 583.821 154.685 584.265 155.109C584.716 155.527 584.941 156.027 584.941 156.611C584.941 157.201 584.716 157.708 584.265 158.132C583.821 158.55 583.284 158.759 582.654 158.759ZM592.391 155.636V176H588.155V155.636H592.391ZM601.412 176.249C600.252 176.249 599.201 175.95 598.26 175.354C597.325 174.75 596.583 173.866 596.033 172.699C595.489 171.526 595.217 170.087 595.217 168.384C595.217 166.634 595.499 165.179 596.062 164.018C596.626 162.852 597.375 161.98 598.31 161.403C599.251 160.82 600.282 160.528 601.402 160.528C602.257 160.528 602.97 160.674 603.54 160.966C604.116 161.251 604.58 161.609 604.932 162.04C605.29 162.464 605.562 162.882 605.747 163.293H605.876V155.636H610.102V176H605.926V173.554H605.747C605.548 173.978 605.267 174.399 604.902 174.817C604.544 175.228 604.077 175.569 603.5 175.841C602.93 176.113 602.234 176.249 601.412 176.249ZM602.754 172.878C603.437 172.878 604.014 172.692 604.484 172.321C604.962 171.943 605.326 171.416 605.578 170.74C605.837 170.064 605.966 169.272 605.966 168.364C605.966 167.455 605.84 166.667 605.588 165.997C605.336 165.328 604.972 164.811 604.494 164.446C604.017 164.081 603.437 163.899 602.754 163.899C602.058 163.899 601.472 164.088 600.994 164.466C600.517 164.844 600.156 165.367 599.911 166.037C599.665 166.706 599.543 167.482 599.543 168.364C599.543 169.252 599.665 170.037 599.911 170.72C600.162 171.396 600.524 171.927 600.994 172.311C601.472 172.689 602.058 172.878 602.754 172.878ZM613.585 176V160.727H617.821V176H613.585ZM615.713 158.759C615.083 158.759 614.543 158.55 614.092 158.132C613.648 157.708 613.426 157.201 613.426 156.611C613.426 156.027 613.648 155.527 614.092 155.109C614.543 154.685 615.083 154.473 615.713 154.473C616.342 154.473 616.879 154.685 617.324 155.109C617.774 155.527 618 156.027 618 156.611C618 157.201 617.774 157.708 617.324 158.132C616.879 158.55 616.342 158.759 615.713 158.759ZM625.45 167.17V176H621.214V160.727H625.251V163.422H625.43C625.768 162.534 626.335 161.831 627.13 161.314C627.925 160.79 628.89 160.528 630.023 160.528C631.084 160.528 632.009 160.76 632.798 161.224C633.586 161.688 634.2 162.351 634.637 163.213C635.075 164.068 635.293 165.089 635.293 166.276V176H631.058V167.031C631.064 166.097 630.826 165.367 630.342 164.844C629.858 164.313 629.192 164.048 628.343 164.048C627.773 164.048 627.269 164.171 626.832 164.416C626.401 164.661 626.063 165.019 625.817 165.49C625.579 165.954 625.456 166.514 625.45 167.17ZM645.512 182.045C644.14 182.045 642.964 181.857 641.983 181.479C641.008 181.107 640.233 180.6 639.656 179.957C639.079 179.314 638.705 178.592 638.532 177.79L642.45 177.263C642.569 177.568 642.758 177.853 643.017 178.118C643.275 178.383 643.617 178.595 644.041 178.754C644.472 178.92 644.995 179.003 645.612 179.003C646.533 179.003 647.292 178.777 647.889 178.327C648.492 177.883 648.794 177.137 648.794 176.089V173.295H648.615C648.429 173.72 648.151 174.121 647.779 174.499C647.408 174.876 646.931 175.185 646.348 175.423C645.764 175.662 645.068 175.781 644.26 175.781C643.113 175.781 642.069 175.516 641.127 174.986C640.193 174.449 639.447 173.63 638.89 172.53C638.34 171.423 638.065 170.024 638.065 168.334C638.065 166.604 638.347 165.159 638.91 163.999C639.474 162.839 640.223 161.97 641.157 161.393C642.099 160.817 643.129 160.528 644.25 160.528C645.105 160.528 645.821 160.674 646.397 160.966C646.974 161.251 647.438 161.609 647.789 162.04C648.147 162.464 648.422 162.882 648.615 163.293H648.774V160.727H652.98V176.149C652.98 177.448 652.662 178.536 652.025 179.411C651.389 180.286 650.507 180.942 649.38 181.379C648.26 181.823 646.971 182.045 645.512 182.045ZM645.602 172.599C646.285 172.599 646.861 172.43 647.332 172.092C647.809 171.748 648.174 171.257 648.426 170.621C648.684 169.978 648.814 169.209 648.814 168.314C648.814 167.419 648.688 166.643 648.436 165.987C648.184 165.324 647.819 164.811 647.342 164.446C646.865 164.081 646.285 163.899 645.602 163.899C644.906 163.899 644.319 164.088 643.842 164.466C643.365 164.837 643.003 165.354 642.758 166.017C642.513 166.68 642.39 167.446 642.39 168.314C642.39 169.196 642.513 169.958 642.758 170.601C643.01 171.237 643.371 171.731 643.842 172.082C644.319 172.427 644.906 172.599 645.602 172.599ZM667.067 155.636V176H662.831V155.636H667.067ZM670.46 176V160.727H674.696V176H670.46ZM672.588 158.759C671.958 158.759 671.418 158.55 670.967 158.132C670.523 157.708 670.301 157.201 670.301 156.611C670.301 156.027 670.523 155.527 670.967 155.109C671.418 154.685 671.958 154.473 672.588 154.473C673.217 154.473 673.754 154.685 674.199 155.109C674.649 155.527 674.875 156.027 674.875 156.611C674.875 157.201 674.649 157.708 674.199 158.132C673.754 158.55 673.217 158.759 672.588 158.759ZM692.327 160.727L686.988 176H682.215L676.876 160.727H681.35L684.522 171.655H684.681L687.843 160.727H692.327ZM694.495 176V160.727H698.731V176H694.495ZM696.623 158.759C695.993 158.759 695.453 158.55 695.002 158.132C694.558 157.708 694.336 157.201 694.336 156.611C694.336 156.027 694.558 155.527 695.002 155.109C695.453 154.685 695.993 154.473 696.623 154.473C697.253 154.473 697.79 154.685 698.234 155.109C698.684 155.527 698.91 156.027 698.91 156.611C698.91 157.201 698.684 157.708 698.234 158.132C697.79 158.55 697.253 158.759 696.623 158.759ZM706.36 167.17V176H702.124V160.727H706.161V163.422H706.34C706.678 162.534 707.245 161.831 708.04 161.314C708.836 160.79 709.8 160.528 710.934 160.528C711.994 160.528 712.919 160.76 713.708 161.224C714.497 161.688 715.11 162.351 715.547 163.213C715.985 164.068 716.203 165.089 716.203 166.276V176H711.968V167.031C711.974 166.097 711.736 165.367 711.252 164.844C710.768 164.313 710.102 164.048 709.253 164.048C708.683 164.048 708.179 164.171 707.742 164.416C707.311 164.661 706.973 165.019 706.728 165.49C706.489 165.954 706.366 166.514 706.36 167.17ZM726.423 182.045C725.05 182.045 723.874 181.857 722.893 181.479C721.918 181.107 721.143 180.6 720.566 179.957C719.989 179.314 719.615 178.592 719.442 177.79L723.36 177.263C723.479 177.568 723.668 177.853 723.927 178.118C724.185 178.383 724.527 178.595 724.951 178.754C725.382 178.92 725.906 179.003 726.522 179.003C727.443 179.003 728.202 178.777 728.799 178.327C729.402 177.883 729.704 177.137 729.704 176.089V173.295H729.525C729.339 173.72 729.061 174.121 728.69 174.499C728.318 174.876 727.841 175.185 727.258 175.423C726.674 175.662 725.978 175.781 725.17 175.781C724.023 175.781 722.979 175.516 722.038 174.986C721.103 174.449 720.357 173.63 719.8 172.53C719.25 171.423 718.975 170.024 718.975 168.334C718.975 166.604 719.257 165.159 719.82 163.999C720.384 162.839 721.133 161.97 722.067 161.393C723.009 160.817 724.04 160.528 725.16 160.528C726.015 160.528 726.731 160.674 727.308 160.966C727.884 161.251 728.348 161.609 728.7 162.04C729.058 162.464 729.333 162.882 729.525 163.293H729.684V160.727H733.89V176.149C733.89 177.448 733.572 178.536 732.935 179.411C732.299 180.286 731.417 180.942 730.29 181.379C729.17 181.823 727.881 182.045 726.423 182.045ZM726.512 172.599C727.195 172.599 727.772 172.43 728.242 172.092C728.719 171.748 729.084 171.257 729.336 170.621C729.594 169.978 729.724 169.209 729.724 168.314C729.724 167.419 729.598 166.643 729.346 165.987C729.094 165.324 728.729 164.811 728.252 164.446C727.775 164.081 727.195 163.899 726.512 163.899C725.816 163.899 725.229 164.088 724.752 164.466C724.275 164.837 723.914 165.354 723.668 166.017C723.423 166.68 723.3 167.446 723.3 168.314C723.3 169.196 723.423 169.958 723.668 170.601C723.92 171.237 724.281 171.731 724.752 172.082C725.229 172.427 725.816 172.599 726.512 172.599ZM748.096 176.288C747.122 176.288 746.253 176.119 745.491 175.781C744.729 175.437 744.126 174.929 743.681 174.26C743.244 173.584 743.025 172.742 743.025 171.734C743.025 170.886 743.181 170.173 743.493 169.597C743.804 169.02 744.228 168.556 744.765 168.205C745.302 167.853 745.912 167.588 746.595 167.409C747.284 167.23 748.007 167.104 748.762 167.031C749.651 166.938 750.367 166.852 750.91 166.773C751.454 166.687 751.848 166.561 752.093 166.395C752.339 166.229 752.461 165.984 752.461 165.659V165.599C752.461 164.97 752.262 164.482 751.865 164.138C751.474 163.793 750.917 163.621 750.194 163.621C749.432 163.621 748.825 163.79 748.375 164.128C747.924 164.459 747.626 164.877 747.48 165.381L743.562 165.062C743.761 164.134 744.152 163.332 744.735 162.656C745.319 161.973 746.071 161.45 746.993 161.085C747.921 160.714 748.994 160.528 750.214 160.528C751.063 160.528 751.875 160.628 752.65 160.827C753.432 161.026 754.125 161.334 754.728 161.751C755.338 162.169 755.819 162.706 756.17 163.362C756.521 164.012 756.697 164.791 756.697 165.699V176H752.68V173.882H752.561C752.315 174.359 751.987 174.78 751.576 175.145C751.165 175.503 750.672 175.785 750.095 175.99C749.518 176.189 748.852 176.288 748.096 176.288ZM749.309 173.365C749.932 173.365 750.483 173.242 750.96 172.997C751.437 172.745 751.812 172.407 752.083 171.983C752.355 171.559 752.491 171.078 752.491 170.541V168.92C752.359 169.007 752.176 169.086 751.944 169.159C751.719 169.225 751.464 169.288 751.179 169.348C750.894 169.401 750.609 169.451 750.324 169.497C750.038 169.537 749.78 169.573 749.548 169.607C749.051 169.679 748.617 169.795 748.245 169.955C747.874 170.114 747.586 170.329 747.38 170.601C747.175 170.866 747.072 171.197 747.072 171.595C747.072 172.172 747.281 172.613 747.699 172.918C748.123 173.216 748.66 173.365 749.309 173.365ZM764.219 167.17V176H759.983V160.727H764.02V163.422H764.199C764.537 162.534 765.104 161.831 765.9 161.314C766.695 160.79 767.659 160.528 768.793 160.528C769.854 160.528 770.778 160.76 771.567 161.224C772.356 161.688 772.969 162.351 773.407 163.213C773.844 164.068 774.063 165.089 774.063 166.276V176H769.827V167.031C769.834 166.097 769.595 165.367 769.111 164.844C768.627 164.313 767.961 164.048 767.113 164.048C766.542 164.048 766.039 164.171 765.601 164.416C765.17 164.661 764.832 165.019 764.587 165.49C764.348 165.954 764.226 166.514 764.219 167.17ZM783.029 176.249C781.869 176.249 780.818 175.95 779.877 175.354C778.942 174.75 778.2 173.866 777.65 172.699C777.106 171.526 776.835 170.087 776.835 168.384C776.835 166.634 777.116 165.179 777.68 164.018C778.243 162.852 778.992 161.98 779.927 161.403C780.868 160.82 781.899 160.528 783.019 160.528C783.874 160.528 784.587 160.674 785.157 160.966C785.734 161.251 786.198 161.609 786.549 162.04C786.907 162.464 787.179 162.882 787.364 163.293H787.494V155.636H791.719V176H787.543V173.554H787.364C787.165 173.978 786.884 174.399 786.519 174.817C786.161 175.228 785.694 175.569 785.117 175.841C784.547 176.113 783.851 176.249 783.029 176.249ZM784.371 172.878C785.054 172.878 785.631 172.692 786.102 172.321C786.579 171.943 786.943 171.416 787.195 170.74C787.454 170.064 787.583 169.272 787.583 168.364C787.583 167.455 787.457 166.667 787.205 165.997C786.953 165.328 786.589 164.811 786.112 164.446C785.634 164.081 785.054 163.899 784.371 163.899C783.675 163.899 783.089 164.088 782.612 164.466C782.134 164.844 781.773 165.367 781.528 166.037C781.282 166.706 781.16 167.482 781.16 168.364C781.16 169.252 781.282 170.037 781.528 170.72C781.78 171.396 782.141 171.927 782.612 172.311C783.089 172.689 783.675 172.878 784.371 172.878ZM801.762 176V155.636H805.998V163.293H806.127C806.313 162.882 806.581 162.464 806.933 162.04C807.29 161.609 807.754 161.251 808.325 160.966C808.901 160.674 809.617 160.528 810.472 160.528C811.586 160.528 812.613 160.82 813.555 161.403C814.496 161.98 815.248 162.852 815.812 164.018C816.375 165.179 816.657 166.634 816.657 168.384C816.657 170.087 816.382 171.526 815.832 172.699C815.288 173.866 814.546 174.75 813.604 175.354C812.67 175.95 811.622 176.249 810.462 176.249C809.64 176.249 808.941 176.113 808.364 175.841C807.794 175.569 807.327 175.228 806.962 174.817C806.598 174.399 806.319 173.978 806.127 173.554H805.938V176H801.762ZM805.908 168.364C805.908 169.272 806.034 170.064 806.286 170.74C806.538 171.416 806.903 171.943 807.38 172.321C807.857 172.692 808.437 172.878 809.12 172.878C809.809 172.878 810.393 172.689 810.87 172.311C811.347 171.927 811.709 171.396 811.954 170.72C812.206 170.037 812.332 169.252 812.332 168.364C812.332 167.482 812.209 166.706 811.964 166.037C811.719 165.367 811.357 164.844 810.88 164.466C810.403 164.088 809.816 163.899 809.12 163.899C808.431 163.899 807.847 164.081 807.37 164.446C806.899 164.811 806.538 165.328 806.286 165.997C806.034 166.667 805.908 167.455 805.908 168.364ZM819.483 176V160.727H823.59V163.392H823.749C824.027 162.444 824.495 161.728 825.151 161.244C825.807 160.754 826.563 160.509 827.418 160.509C827.63 160.509 827.859 160.522 828.104 160.548C828.349 160.575 828.565 160.611 828.75 160.658V164.416C828.551 164.357 828.276 164.304 827.925 164.257C827.574 164.211 827.252 164.188 826.961 164.188C826.337 164.188 825.781 164.323 825.29 164.595C824.806 164.86 824.422 165.232 824.137 165.709C823.858 166.186 823.719 166.736 823.719 167.359V176H819.483ZM837.19 176.298C835.619 176.298 834.266 175.98 833.133 175.344C832.006 174.701 831.138 173.793 830.528 172.619C829.918 171.439 829.613 170.044 829.613 168.433C829.613 166.862 829.918 165.483 830.528 164.297C831.138 163.11 831.996 162.186 833.103 161.523C834.217 160.86 835.522 160.528 837.021 160.528C838.028 160.528 838.966 160.691 839.835 161.016C840.71 161.334 841.472 161.814 842.121 162.457C842.778 163.1 843.288 163.909 843.653 164.884C844.017 165.851 844.2 166.985 844.2 168.284V169.447H831.303V166.822H840.212C840.212 166.213 840.08 165.672 839.815 165.202C839.549 164.731 839.182 164.363 838.711 164.098C838.247 163.826 837.707 163.69 837.09 163.69C836.447 163.69 835.877 163.839 835.38 164.138C834.889 164.429 834.505 164.824 834.227 165.321C833.948 165.812 833.806 166.358 833.799 166.962V169.457C833.799 170.213 833.938 170.866 834.217 171.416C834.502 171.966 834.903 172.391 835.42 172.689C835.937 172.987 836.55 173.136 837.259 173.136C837.73 173.136 838.161 173.07 838.552 172.938C838.943 172.805 839.278 172.606 839.556 172.341C839.835 172.076 840.047 171.751 840.192 171.366L844.11 171.625C843.911 172.566 843.504 173.388 842.887 174.091C842.277 174.787 841.488 175.33 840.521 175.722C839.559 176.106 838.449 176.298 837.19 176.298ZM851.319 176.288C850.344 176.288 849.476 176.119 848.714 175.781C847.951 175.437 847.348 174.929 846.904 174.26C846.467 173.584 846.248 172.742 846.248 171.734C846.248 170.886 846.404 170.173 846.715 169.597C847.027 169.02 847.451 168.556 847.988 168.205C848.525 167.853 849.135 167.588 849.817 167.409C850.507 167.23 851.229 167.104 851.985 167.031C852.873 166.938 853.589 166.852 854.133 166.773C854.676 166.687 855.071 166.561 855.316 166.395C855.561 166.229 855.684 165.984 855.684 165.659V165.599C855.684 164.97 855.485 164.482 855.087 164.138C854.696 163.793 854.139 163.621 853.417 163.621C852.655 163.621 852.048 163.79 851.597 164.128C851.147 164.459 850.848 164.877 850.702 165.381L846.785 165.062C846.984 164.134 847.375 163.332 847.958 162.656C848.541 161.973 849.294 161.45 850.215 161.085C851.143 160.714 852.217 160.528 853.437 160.528C854.285 160.528 855.097 160.628 855.873 160.827C856.655 161.026 857.348 161.334 857.951 161.751C858.561 162.169 859.041 162.706 859.393 163.362C859.744 164.012 859.92 164.791 859.92 165.699V176H855.903V173.882H855.783C855.538 174.359 855.21 174.78 854.799 175.145C854.388 175.503 853.894 175.785 853.317 175.99C852.741 176.189 852.075 176.288 851.319 176.288ZM852.532 173.365C853.155 173.365 853.705 173.242 854.183 172.997C854.66 172.745 855.034 172.407 855.306 171.983C855.578 171.559 855.714 171.078 855.714 170.541V168.92C855.581 169.007 855.399 169.086 855.167 169.159C854.942 169.225 854.686 169.288 854.401 169.348C854.116 169.401 853.831 169.451 853.546 169.497C853.261 169.537 853.003 169.573 852.771 169.607C852.273 169.679 851.839 169.795 851.468 169.955C851.097 170.114 850.808 170.329 850.603 170.601C850.397 170.866 850.295 171.197 850.295 171.595C850.295 172.172 850.504 172.613 850.921 172.918C851.345 173.216 851.882 173.365 852.532 173.365ZM871.33 160.727V163.909H862.132V160.727H871.33ZM864.22 157.068H868.456V171.307C868.456 171.698 868.516 172.003 868.635 172.222C868.754 172.434 868.92 172.583 869.132 172.669C869.351 172.755 869.603 172.798 869.888 172.798C870.087 172.798 870.286 172.782 870.484 172.749C870.683 172.709 870.836 172.679 870.942 172.659L871.608 175.811C871.396 175.877 871.098 175.954 870.713 176.04C870.329 176.133 869.861 176.189 869.311 176.209C868.29 176.249 867.395 176.113 866.626 175.801C865.864 175.49 865.271 175.006 864.847 174.349C864.422 173.693 864.214 172.865 864.22 171.864V157.068ZM878.653 167.17V176H874.417V155.636H878.533V163.422H878.712C879.057 162.52 879.614 161.814 880.383 161.304C881.152 160.787 882.116 160.528 883.276 160.528C884.337 160.528 885.262 160.76 886.05 161.224C886.846 161.682 887.462 162.341 887.9 163.203C888.344 164.058 888.563 165.082 888.556 166.276V176H884.32V167.031C884.327 166.09 884.088 165.357 883.604 164.834C883.127 164.31 882.458 164.048 881.596 164.048C881.019 164.048 880.509 164.171 880.065 164.416C879.627 164.661 879.282 165.019 879.031 165.49C878.785 165.954 878.659 166.514 878.653 167.17ZM891.89 176V160.727H896.125V176H891.89ZM894.017 158.759C893.388 158.759 892.847 158.55 892.397 158.132C891.953 157.708 891.73 157.201 891.73 156.611C891.73 156.027 891.953 155.527 892.397 155.109C892.847 154.685 893.388 154.473 894.017 154.473C894.647 154.473 895.184 154.685 895.628 155.109C896.079 155.527 896.304 156.027 896.304 156.611C896.304 157.201 896.079 157.708 895.628 158.132C895.184 158.55 894.647 158.759 894.017 158.759ZM903.754 167.17V176H899.518V160.727H903.555V163.422H903.734C904.072 162.534 904.639 161.831 905.435 161.314C906.23 160.79 907.195 160.528 908.328 160.528C909.389 160.528 910.313 160.76 911.102 161.224C911.891 161.688 912.504 162.351 912.942 163.213C913.379 164.068 913.598 165.089 913.598 166.276V176H909.362V167.031C909.369 166.097 909.13 165.367 908.646 164.844C908.162 164.313 907.496 164.048 906.648 164.048C906.078 164.048 905.574 164.171 905.136 164.416C904.705 164.661 904.367 165.019 904.122 165.49C903.884 165.954 903.761 166.514 903.754 167.17ZM923.817 182.045C922.445 182.045 921.268 181.857 920.287 181.479C919.313 181.107 918.537 180.6 917.961 179.957C917.384 179.314 917.009 178.592 916.837 177.79L920.755 177.263C920.874 177.568 921.063 177.853 921.321 178.118C921.58 178.383 921.921 178.595 922.346 178.754C922.776 178.92 923.3 179.003 923.917 179.003C924.838 179.003 925.597 178.777 926.194 178.327C926.797 177.883 927.098 177.137 927.098 176.089V173.295H926.919C926.734 173.72 926.455 174.121 926.084 174.499C925.713 174.876 925.236 175.185 924.652 175.423C924.069 175.662 923.373 175.781 922.564 175.781C921.417 175.781 920.373 175.516 919.432 174.986C918.498 174.449 917.752 173.63 917.195 172.53C916.645 171.423 916.37 170.024 916.37 168.334C916.37 166.604 916.651 165.159 917.215 163.999C917.778 162.839 918.527 161.97 919.462 161.393C920.403 160.817 921.434 160.528 922.554 160.528C923.409 160.528 924.125 160.674 924.702 160.966C925.279 161.251 925.743 161.609 926.094 162.04C926.452 162.464 926.727 162.882 926.919 163.293H927.078V160.727H931.284V176.149C931.284 177.448 930.966 178.536 930.33 179.411C929.694 180.286 928.812 180.942 927.685 181.379C926.565 181.823 925.275 182.045 923.817 182.045ZM923.907 172.599C924.589 172.599 925.166 172.43 925.637 172.092C926.114 171.748 926.479 171.257 926.73 170.621C926.989 169.978 927.118 169.209 927.118 168.314C927.118 167.419 926.992 166.643 926.74 165.987C926.489 165.324 926.124 164.811 925.647 164.446C925.169 164.081 924.589 163.899 923.907 163.899C923.211 163.899 922.624 164.088 922.147 164.466C921.669 164.837 921.308 165.354 921.063 166.017C920.818 166.68 920.695 167.446 920.695 168.314C920.695 169.196 920.818 169.958 921.063 170.601C921.315 171.237 921.676 171.731 922.147 172.082C922.624 172.427 923.211 172.599 923.907 172.599ZM272.651 210.298C271.08 210.298 269.727 209.98 268.594 209.344C267.467 208.701 266.598 207.793 265.989 206.619C265.379 205.439 265.074 204.044 265.074 202.433C265.074 200.862 265.379 199.483 265.989 198.297C266.598 197.11 267.457 196.186 268.564 195.523C269.678 194.86 270.983 194.528 272.482 194.528C273.489 194.528 274.427 194.691 275.295 195.016C276.17 195.334 276.933 195.814 277.582 196.457C278.239 197.1 278.749 197.909 279.114 198.884C279.478 199.851 279.661 200.985 279.661 202.284V203.447H266.764V200.822H275.673C275.673 200.213 275.541 199.672 275.276 199.202C275.01 198.731 274.643 198.363 274.172 198.098C273.708 197.826 273.168 197.69 272.551 197.69C271.908 197.69 271.338 197.839 270.841 198.138C270.35 198.429 269.966 198.824 269.688 199.321C269.409 199.812 269.267 200.358 269.26 200.962V203.457C269.26 204.213 269.399 204.866 269.678 205.416C269.963 205.966 270.364 206.391 270.881 206.689C271.398 206.987 272.011 207.136 272.72 207.136C273.191 207.136 273.622 207.07 274.013 206.938C274.404 206.805 274.739 206.606 275.017 206.341C275.295 206.076 275.508 205.751 275.653 205.366L279.571 205.625C279.372 206.566 278.964 207.388 278.348 208.091C277.738 208.787 276.949 209.33 275.982 209.722C275.02 210.106 273.91 210.298 272.651 210.298ZM285.691 194.727L288.495 200.067L291.369 194.727H295.714L291.289 202.364L295.833 210H291.508L288.495 204.72L285.532 210H281.157L285.691 202.364L281.316 194.727H285.691ZM298.229 215.727V194.727H302.406V197.293H302.594C302.78 196.882 303.049 196.464 303.4 196.04C303.758 195.609 304.222 195.251 304.792 194.966C305.369 194.674 306.085 194.528 306.94 194.528C308.053 194.528 309.081 194.82 310.022 195.403C310.963 195.98 311.716 196.852 312.279 198.018C312.843 199.179 313.124 200.634 313.124 202.384C313.124 204.087 312.849 205.526 312.299 206.699C311.755 207.866 311.013 208.75 310.072 209.354C309.137 209.95 308.09 210.249 306.93 210.249C306.108 210.249 305.408 210.113 304.832 209.841C304.262 209.569 303.794 209.228 303.43 208.817C303.065 208.399 302.787 207.978 302.594 207.554H302.465V215.727H298.229ZM302.376 202.364C302.376 203.272 302.502 204.064 302.754 204.74C303.005 205.416 303.37 205.943 303.847 206.321C304.325 206.692 304.905 206.878 305.587 206.878C306.277 206.878 306.86 206.689 307.337 206.311C307.815 205.927 308.176 205.396 308.421 204.72C308.673 204.037 308.799 203.252 308.799 202.364C308.799 201.482 308.676 200.706 308.431 200.037C308.186 199.367 307.825 198.844 307.347 198.466C306.87 198.088 306.283 197.899 305.587 197.899C304.898 197.899 304.315 198.081 303.837 198.446C303.367 198.811 303.005 199.328 302.754 199.997C302.502 200.667 302.376 201.455 302.376 202.364ZM322.908 210.298C321.337 210.298 319.985 209.98 318.852 209.344C317.725 208.701 316.856 207.793 316.246 206.619C315.637 205.439 315.332 204.044 315.332 202.433C315.332 200.862 315.637 199.483 316.246 198.297C316.856 197.11 317.715 196.186 318.822 195.523C319.935 194.86 321.241 194.528 322.739 194.528C323.747 194.528 324.685 194.691 325.553 195.016C326.428 195.334 327.191 195.814 327.84 196.457C328.496 197.1 329.007 197.909 329.371 198.884C329.736 199.851 329.918 200.985 329.918 202.284V203.447H317.022V200.822H325.931C325.931 200.213 325.799 199.672 325.533 199.202C325.268 198.731 324.9 198.363 324.43 198.098C323.966 197.826 323.425 197.69 322.809 197.69C322.166 197.69 321.596 197.839 321.099 198.138C320.608 198.429 320.224 198.824 319.945 199.321C319.667 199.812 319.524 200.358 319.518 200.962V203.457C319.518 204.213 319.657 204.866 319.935 205.416C320.22 205.966 320.621 206.391 321.138 206.689C321.656 206.987 322.269 207.136 322.978 207.136C323.449 207.136 323.879 207.07 324.271 206.938C324.662 206.805 324.996 206.606 325.275 206.341C325.553 206.076 325.765 205.751 325.911 205.366L329.829 205.625C329.63 206.566 329.222 207.388 328.606 208.091C327.996 208.787 327.207 209.33 326.239 209.722C325.278 210.106 324.168 210.298 322.908 210.298ZM332.683 210V194.727H336.789V197.392H336.948C337.227 196.444 337.694 195.728 338.35 195.244C339.006 194.754 339.762 194.509 340.617 194.509C340.829 194.509 341.058 194.522 341.303 194.548C341.549 194.575 341.764 194.611 341.95 194.658V198.416C341.751 198.357 341.476 198.304 341.124 198.257C340.773 198.211 340.451 198.188 340.16 198.188C339.537 198.188 338.98 198.323 338.489 198.595C338.005 198.86 337.621 199.232 337.336 199.709C337.058 200.186 336.918 200.736 336.918 201.359V210H332.683ZM344.14 210V194.727H348.375V210H344.14ZM346.267 192.759C345.638 192.759 345.097 192.55 344.647 192.132C344.203 191.708 343.98 191.201 343.98 190.611C343.98 190.027 344.203 189.527 344.647 189.109C345.097 188.685 345.638 188.473 346.267 188.473C346.897 188.473 347.434 188.685 347.878 189.109C348.329 189.527 348.554 190.027 348.554 190.611C348.554 191.201 348.329 191.708 347.878 192.132C347.434 192.55 346.897 192.759 346.267 192.759ZM358.729 210.298C357.158 210.298 355.805 209.98 354.672 209.344C353.545 208.701 352.677 207.793 352.067 206.619C351.457 205.439 351.152 204.044 351.152 202.433C351.152 200.862 351.457 199.483 352.067 198.297C352.677 197.11 353.535 196.186 354.642 195.523C355.756 194.86 357.062 194.528 358.56 194.528C359.567 194.528 360.505 194.691 361.374 195.016C362.249 195.334 363.011 195.814 363.661 196.457C364.317 197.1 364.827 197.909 365.192 198.884C365.556 199.851 365.739 200.985 365.739 202.284V203.447H352.842V200.822H361.751C361.751 200.213 361.619 199.672 361.354 199.202C361.089 198.731 360.721 198.363 360.25 198.098C359.786 197.826 359.246 197.69 358.629 197.69C357.986 197.69 357.416 197.839 356.919 198.138C356.429 198.429 356.044 198.824 355.766 199.321C355.487 199.812 355.345 200.358 355.338 200.962V203.457C355.338 204.213 355.477 204.866 355.756 205.416C356.041 205.966 356.442 206.391 356.959 206.689C357.476 206.987 358.089 207.136 358.798 207.136C359.269 207.136 359.7 207.07 360.091 206.938C360.482 206.805 360.817 206.606 361.095 206.341C361.374 206.076 361.586 205.751 361.732 205.366L365.649 205.625C365.45 206.566 365.043 207.388 364.426 208.091C363.816 208.787 363.027 209.33 362.06 209.722C361.098 210.106 359.988 210.298 358.729 210.298ZM372.739 201.17V210H368.503V194.727H372.54V197.422H372.719C373.057 196.534 373.624 195.831 374.419 195.314C375.214 194.79 376.179 194.528 377.312 194.528C378.373 194.528 379.298 194.76 380.087 195.224C380.875 195.688 381.489 196.351 381.926 197.213C382.364 198.068 382.582 199.089 382.582 200.276V210H378.347V201.031C378.353 200.097 378.115 199.367 377.631 198.844C377.147 198.313 376.481 198.048 375.632 198.048C375.062 198.048 374.558 198.171 374.121 198.416C373.69 198.661 373.352 199.019 373.107 199.49C372.868 199.954 372.745 200.514 372.739 201.17ZM392.821 210.298C391.257 210.298 389.911 209.967 388.784 209.304C387.664 208.634 386.802 207.706 386.199 206.52C385.603 205.333 385.304 203.968 385.304 202.423C385.304 200.859 385.606 199.487 386.209 198.307C386.819 197.12 387.684 196.196 388.804 195.533C389.925 194.863 391.257 194.528 392.801 194.528C394.134 194.528 395.301 194.77 396.301 195.254C397.302 195.738 398.095 196.418 398.678 197.293C399.261 198.168 399.583 199.195 399.642 200.375H395.645C395.533 199.613 395.234 199 394.75 198.536C394.273 198.065 393.647 197.83 392.871 197.83C392.215 197.83 391.641 198.009 391.151 198.366C390.667 198.718 390.289 199.232 390.017 199.908C389.746 200.584 389.61 201.402 389.61 202.364C389.61 203.338 389.742 204.167 390.007 204.849C390.279 205.532 390.66 206.053 391.151 206.411C391.641 206.768 392.215 206.947 392.871 206.947C393.355 206.947 393.789 206.848 394.174 206.649C394.565 206.45 394.886 206.162 395.138 205.784C395.397 205.4 395.566 204.939 395.645 204.402H399.642C399.576 205.569 399.258 206.596 398.688 207.484C398.124 208.366 397.346 209.055 396.351 209.553C395.357 210.05 394.18 210.298 392.821 210.298ZM409.315 210.298C407.744 210.298 406.391 209.98 405.258 209.344C404.131 208.701 403.263 207.793 402.653 206.619C402.043 205.439 401.738 204.044 401.738 202.433C401.738 200.862 402.043 199.483 402.653 198.297C403.263 197.11 404.121 196.186 405.228 195.523C406.342 194.86 407.647 194.528 409.146 194.528C410.153 194.528 411.091 194.691 411.96 195.016C412.835 195.334 413.597 195.814 414.246 196.457C414.903 197.1 415.413 197.909 415.778 198.884C416.142 199.851 416.325 200.985 416.325 202.284V203.447H403.428V200.822H412.337C412.337 200.213 412.205 199.672 411.94 199.202C411.674 198.731 411.307 198.363 410.836 198.098C410.372 197.826 409.832 197.69 409.215 197.69C408.572 197.69 408.002 197.839 407.505 198.138C407.014 198.429 406.63 198.824 406.352 199.321C406.073 199.812 405.931 200.358 405.924 200.962V203.457C405.924 204.213 406.063 204.866 406.342 205.416C406.627 205.966 407.028 206.391 407.545 206.689C408.062 206.987 408.675 207.136 409.384 207.136C409.855 207.136 410.286 207.07 410.677 206.938C411.068 206.805 411.403 206.606 411.681 206.341C411.96 206.076 412.172 205.751 412.317 205.366L416.235 205.625C416.036 206.566 415.629 207.388 415.012 208.091C414.402 208.787 413.613 209.33 412.646 209.722C411.684 210.106 410.574 210.298 409.315 210.298ZM431.796 199.082L427.918 199.321C427.852 198.99 427.71 198.691 427.491 198.426C427.272 198.154 426.984 197.939 426.626 197.78C426.274 197.614 425.853 197.531 425.363 197.531C424.707 197.531 424.153 197.67 423.702 197.949C423.252 198.221 423.026 198.585 423.026 199.043C423.026 199.407 423.172 199.715 423.464 199.967C423.755 200.219 424.256 200.421 424.965 200.574L427.729 201.131C429.214 201.436 430.321 201.926 431.05 202.602C431.78 203.278 432.144 204.167 432.144 205.267C432.144 206.268 431.849 207.146 431.259 207.902C430.676 208.658 429.874 209.248 428.853 209.672C427.839 210.089 426.669 210.298 425.343 210.298C423.321 210.298 421.71 209.877 420.511 209.036C419.317 208.187 418.618 207.034 418.413 205.575L422.579 205.357C422.705 205.973 423.01 206.444 423.494 206.768C423.978 207.087 424.597 207.246 425.353 207.246C426.095 207.246 426.692 207.103 427.143 206.818C427.6 206.527 427.832 206.152 427.839 205.695C427.832 205.31 427.67 204.995 427.352 204.75C427.033 204.498 426.543 204.306 425.88 204.173L423.235 203.646C421.744 203.348 420.633 202.831 419.904 202.095C419.182 201.359 418.82 200.421 418.82 199.281C418.82 198.3 419.085 197.455 419.616 196.746C420.153 196.036 420.905 195.49 421.873 195.105C422.847 194.721 423.987 194.528 425.293 194.528C427.222 194.528 428.74 194.936 429.847 195.751C430.961 196.567 431.611 197.677 431.796 199.082ZM449.505 194.727V197.909H440.079V194.727H449.505ZM442.237 210V193.624C442.237 192.517 442.452 191.598 442.883 190.869C443.32 190.14 443.917 189.593 444.673 189.229C445.428 188.864 446.287 188.682 447.248 188.682C447.897 188.682 448.491 188.732 449.028 188.831C449.571 188.93 449.976 189.02 450.241 189.099L449.485 192.281C449.319 192.228 449.114 192.179 448.869 192.132C448.63 192.086 448.385 192.062 448.133 192.062C447.51 192.062 447.076 192.208 446.83 192.5C446.585 192.785 446.462 193.186 446.462 193.703V210H442.237ZM458.446 210.298C456.902 210.298 455.566 209.97 454.439 209.314C453.319 208.651 452.454 207.73 451.844 206.55C451.234 205.363 450.929 203.988 450.929 202.423C450.929 200.846 451.234 199.467 451.844 198.287C452.454 197.1 453.319 196.179 454.439 195.523C455.566 194.86 456.902 194.528 458.446 194.528C459.991 194.528 461.323 194.86 462.444 195.523C463.57 196.179 464.439 197.1 465.049 198.287C465.658 199.467 465.963 200.846 465.963 202.423C465.963 203.988 465.658 205.363 465.049 206.55C464.439 207.73 463.57 208.651 462.444 209.314C461.323 209.97 459.991 210.298 458.446 210.298ZM458.466 207.017C459.169 207.017 459.756 206.818 460.226 206.42C460.697 206.016 461.051 205.466 461.29 204.77C461.535 204.074 461.658 203.282 461.658 202.393C461.658 201.505 461.535 200.713 461.29 200.017C461.051 199.321 460.697 198.771 460.226 198.366C459.756 197.962 459.169 197.76 458.466 197.76C457.757 197.76 457.16 197.962 456.676 198.366C456.199 198.771 455.838 199.321 455.593 200.017C455.354 200.713 455.235 201.505 455.235 202.393C455.235 203.282 455.354 204.074 455.593 204.77C455.838 205.466 456.199 206.016 456.676 206.42C457.16 206.818 457.757 207.017 458.466 207.017ZM468.718 210V194.727H472.824V197.392H472.983C473.262 196.444 473.729 195.728 474.385 195.244C475.042 194.754 475.797 194.509 476.652 194.509C476.864 194.509 477.093 194.522 477.338 194.548C477.584 194.575 477.799 194.611 477.985 194.658V198.416C477.786 198.357 477.511 198.304 477.159 198.257C476.808 198.211 476.487 198.188 476.195 198.188C475.572 198.188 475.015 198.323 474.525 198.595C474.041 198.86 473.656 199.232 473.371 199.709C473.093 200.186 472.953 200.736 472.953 201.359V210H468.718ZM500.238 196.219C500.098 195.735 499.903 195.307 499.651 194.936C499.399 194.558 499.091 194.24 498.726 193.982C498.368 193.716 497.957 193.514 497.493 193.375C497.036 193.236 496.529 193.166 495.972 193.166C494.931 193.166 494.016 193.425 493.228 193.942C492.445 194.459 491.836 195.211 491.398 196.199C490.961 197.18 490.742 198.38 490.742 199.798C490.742 201.217 490.957 202.423 491.388 203.418C491.819 204.412 492.429 205.171 493.218 205.695C494.007 206.212 494.938 206.47 496.012 206.47C496.986 206.47 497.818 206.298 498.507 205.953C499.203 205.602 499.734 205.108 500.098 204.472C500.47 203.835 500.655 203.083 500.655 202.214L501.53 202.344H496.28V199.102H504.801V201.668C504.801 203.457 504.424 204.995 503.668 206.281C502.912 207.561 501.872 208.548 500.546 209.244C499.22 209.934 497.702 210.278 495.992 210.278C494.083 210.278 492.406 209.857 490.961 209.016C489.516 208.167 488.389 206.964 487.58 205.406C486.778 203.842 486.377 201.986 486.377 199.838C486.377 198.187 486.615 196.716 487.093 195.423C487.577 194.124 488.253 193.024 489.121 192.122C489.989 191.221 491 190.535 492.154 190.064C493.307 189.593 494.557 189.358 495.902 189.358C497.056 189.358 498.13 189.527 499.124 189.865C500.118 190.196 501 190.667 501.769 191.277C502.544 191.887 503.177 192.613 503.668 193.455C504.158 194.29 504.473 195.211 504.613 196.219H500.238ZM507.956 210V194.727H512.062V197.392H512.222C512.5 196.444 512.967 195.728 513.624 195.244C514.28 194.754 515.036 194.509 515.891 194.509C516.103 194.509 516.331 194.522 516.577 194.548C516.822 194.575 517.037 194.611 517.223 194.658V198.416C517.024 198.357 516.749 198.304 516.398 198.257C516.046 198.211 515.725 198.188 515.433 198.188C514.81 198.188 514.253 198.323 513.763 198.595C513.279 198.86 512.894 199.232 512.609 199.709C512.331 200.186 512.192 200.736 512.192 201.359V210H507.956ZM525.603 210.298C524.058 210.298 522.722 209.97 521.596 209.314C520.475 208.651 519.61 207.73 519 206.55C518.391 205.363 518.086 203.988 518.086 202.423C518.086 200.846 518.391 199.467 519 198.287C519.61 197.1 520.475 196.179 521.596 195.523C522.722 194.86 524.058 194.528 525.603 194.528C527.147 194.528 528.48 194.86 529.6 195.523C530.727 196.179 531.595 197.1 532.205 198.287C532.815 199.467 533.12 200.846 533.12 202.423C533.12 203.988 532.815 205.363 532.205 206.55C531.595 207.73 530.727 208.651 529.6 209.314C528.48 209.97 527.147 210.298 525.603 210.298ZM525.623 207.017C526.325 207.017 526.912 206.818 527.382 206.42C527.853 206.016 528.208 205.466 528.446 204.77C528.692 204.074 528.814 203.282 528.814 202.393C528.814 201.505 528.692 200.713 528.446 200.017C528.208 199.321 527.853 198.771 527.382 198.366C526.912 197.962 526.325 197.76 525.623 197.76C524.913 197.76 524.317 197.962 523.833 198.366C523.355 198.771 522.994 199.321 522.749 200.017C522.51 200.713 522.391 201.505 522.391 202.393C522.391 203.282 522.51 204.074 522.749 204.77C522.994 205.466 523.355 206.016 523.833 206.42C524.317 206.818 524.913 207.017 525.623 207.017ZM538.504 210L534.348 194.727H538.633L541 204.989H541.139L543.605 194.727H547.811L550.316 204.929H550.446L552.772 194.727H557.048L552.902 210H548.417L545.792 200.395H545.603L542.978 210H538.504ZM567.431 194.727V197.909H558.234V194.727H567.431ZM560.322 191.068H564.558V205.307C564.558 205.698 564.617 206.003 564.737 206.222C564.856 206.434 565.022 206.583 565.234 206.669C565.452 206.755 565.704 206.798 565.989 206.798C566.188 206.798 566.387 206.782 566.586 206.749C566.785 206.709 566.937 206.679 567.043 206.659L567.71 209.811C567.497 209.877 567.199 209.954 566.815 210.04C566.43 210.133 565.963 210.189 565.413 210.209C564.392 210.249 563.497 210.113 562.728 209.801C561.966 209.49 561.372 209.006 560.948 208.349C560.524 207.693 560.315 206.865 560.322 205.864V191.068ZM576.927 210.298C575.382 210.298 574.047 209.97 572.92 209.314C571.799 208.651 570.934 207.73 570.325 206.55C569.715 205.363 569.41 203.988 569.41 202.423C569.41 200.846 569.715 199.467 570.325 198.287C570.934 197.1 571.799 196.179 572.92 195.523C574.047 194.86 575.382 194.528 576.927 194.528C578.471 194.528 579.804 194.86 580.924 195.523C582.051 196.179 582.919 197.1 583.529 198.287C584.139 199.467 584.444 200.846 584.444 202.423C584.444 203.988 584.139 205.363 583.529 206.55C582.919 207.73 582.051 208.651 580.924 209.314C579.804 209.97 578.471 210.298 576.927 210.298ZM576.947 207.017C577.649 207.017 578.236 206.818 578.707 206.42C579.177 206.016 579.532 205.466 579.771 204.77C580.016 204.074 580.138 203.282 580.138 202.393C580.138 201.505 580.016 200.713 579.771 200.017C579.532 199.321 579.177 198.771 578.707 198.366C578.236 197.962 577.649 197.76 576.947 197.76C576.237 197.76 575.641 197.962 575.157 198.366C574.68 198.771 574.318 199.321 574.073 200.017C573.835 200.713 573.715 201.505 573.715 202.393C573.715 203.282 573.835 204.074 574.073 204.77C574.318 205.466 574.68 206.016 575.157 206.42C575.641 206.818 576.237 207.017 576.947 207.017ZM587.198 215.727V194.727H591.374V197.293H591.563C591.749 196.882 592.017 196.464 592.369 196.04C592.727 195.609 593.191 195.251 593.761 194.966C594.337 194.674 595.053 194.528 595.908 194.528C597.022 194.528 598.049 194.82 598.991 195.403C599.932 195.98 600.684 196.852 601.248 198.018C601.811 199.179 602.093 200.634 602.093 202.384C602.093 204.087 601.818 205.526 601.268 206.699C600.724 207.866 599.982 208.75 599.04 209.354C598.106 209.95 597.058 210.249 595.898 210.249C595.076 210.249 594.377 210.113 593.8 209.841C593.23 209.569 592.763 209.228 592.398 208.817C592.034 208.399 591.755 207.978 591.563 207.554H591.434V215.727H587.198ZM591.344 202.364C591.344 203.272 591.47 204.064 591.722 204.74C591.974 205.416 592.339 205.943 592.816 206.321C593.293 206.692 593.873 206.878 594.556 206.878C595.246 206.878 595.829 206.689 596.306 206.311C596.783 205.927 597.145 205.396 597.39 204.72C597.642 204.037 597.768 203.252 597.768 202.364C597.768 201.482 597.645 200.706 597.4 200.037C597.155 199.367 596.793 198.844 596.316 198.466C595.839 198.088 595.252 197.899 594.556 197.899C593.867 197.899 593.283 198.081 592.806 198.446C592.335 198.811 591.974 199.328 591.722 199.997C591.47 200.667 591.344 201.455 591.344 202.364ZM604.917 210V194.727H609.153V210H604.917ZM607.045 192.759C606.415 192.759 605.875 192.55 605.424 192.132C604.98 191.708 604.758 191.201 604.758 190.611C604.758 190.027 604.98 189.527 605.424 189.109C605.875 188.685 606.415 188.473 607.045 188.473C607.674 188.473 608.211 188.685 608.656 189.109C609.106 189.527 609.332 190.027 609.332 190.611C609.332 191.201 609.106 191.708 608.656 192.132C608.211 192.55 607.674 192.759 607.045 192.759ZM616.901 210.288C615.926 210.288 615.058 210.119 614.296 209.781C613.533 209.437 612.93 208.929 612.486 208.26C612.049 207.584 611.83 206.742 611.83 205.734C611.83 204.886 611.986 204.173 612.297 203.597C612.609 203.02 613.033 202.556 613.57 202.205C614.107 201.853 614.717 201.588 615.4 201.409C616.089 201.23 616.811 201.104 617.567 201.031C618.455 200.938 619.171 200.852 619.715 200.773C620.258 200.687 620.653 200.561 620.898 200.395C621.143 200.229 621.266 199.984 621.266 199.659V199.599C621.266 198.97 621.067 198.482 620.669 198.138C620.278 197.793 619.721 197.621 618.999 197.621C618.237 197.621 617.63 197.79 617.179 198.128C616.729 198.459 616.43 198.877 616.284 199.381L612.367 199.062C612.566 198.134 612.957 197.332 613.54 196.656C614.123 195.973 614.876 195.45 615.797 195.085C616.725 194.714 617.799 194.528 619.019 194.528C619.867 194.528 620.679 194.628 621.455 194.827C622.237 195.026 622.93 195.334 623.533 195.751C624.143 196.169 624.623 196.706 624.975 197.362C625.326 198.012 625.502 198.791 625.502 199.699V210H621.485V207.882H621.365C621.12 208.359 620.792 208.78 620.381 209.145C619.97 209.503 619.476 209.785 618.9 209.99C618.323 210.189 617.657 210.288 616.901 210.288ZM618.114 207.365C618.737 207.365 619.287 207.242 619.765 206.997C620.242 206.745 620.616 206.407 620.888 205.983C621.16 205.559 621.296 205.078 621.296 204.541V202.92C621.163 203.007 620.981 203.086 620.749 203.159C620.524 203.225 620.268 203.288 619.983 203.348C619.698 203.401 619.413 203.451 619.128 203.497C618.843 203.537 618.585 203.573 618.353 203.607C617.855 203.679 617.421 203.795 617.05 203.955C616.679 204.114 616.391 204.329 616.185 204.601C615.98 204.866 615.877 205.197 615.877 205.595C615.877 206.172 616.086 206.613 616.503 206.918C616.927 207.216 617.464 207.365 618.114 207.365ZM633.024 201.17V210H628.788V194.727H632.825V197.422H633.004C633.342 196.534 633.909 195.831 634.704 195.314C635.5 194.79 636.464 194.528 637.598 194.528C638.658 194.528 639.583 194.76 640.372 195.224C641.161 195.688 641.774 196.351 642.211 197.213C642.649 198.068 642.868 199.089 642.868 200.276V210H638.632V201.031C638.638 200.097 638.4 199.367 637.916 198.844C637.432 198.313 636.766 198.048 635.917 198.048C635.347 198.048 634.843 198.171 634.406 198.416C633.975 198.661 633.637 199.019 633.392 199.49C633.153 199.954 633.03 200.514 633.024 201.17ZM658.913 199.082L655.036 199.321C654.969 198.99 654.827 198.691 654.608 198.426C654.389 198.154 654.101 197.939 653.743 197.78C653.392 197.614 652.971 197.531 652.48 197.531C651.824 197.531 651.27 197.67 650.82 197.949C650.369 198.221 650.143 198.585 650.143 199.043C650.143 199.407 650.289 199.715 650.581 199.967C650.873 200.219 651.373 200.421 652.082 200.574L654.847 201.131C656.331 201.436 657.438 201.926 658.168 202.602C658.897 203.278 659.261 204.167 659.261 205.267C659.261 206.268 658.966 207.146 658.376 207.902C657.793 208.658 656.991 209.248 655.97 209.672C654.956 210.089 653.786 210.298 652.46 210.298C650.438 210.298 648.828 209.877 647.628 209.036C646.435 208.187 645.735 207.034 645.53 205.575L649.696 205.357C649.822 205.973 650.127 206.444 650.611 206.768C651.095 207.087 651.714 207.246 652.47 207.246C653.213 207.246 653.809 207.103 654.26 206.818C654.717 206.527 654.949 206.152 654.956 205.695C654.949 205.31 654.787 204.995 654.469 204.75C654.151 204.498 653.66 204.306 652.997 204.173L650.352 203.646C648.861 203.348 647.75 202.831 647.021 202.095C646.299 201.359 645.938 200.421 645.938 199.281C645.938 198.3 646.203 197.455 646.733 196.746C647.27 196.036 648.022 195.49 648.99 195.105C649.964 194.721 651.105 194.528 652.411 194.528C654.339 194.528 655.857 194.936 656.964 195.751C658.078 196.567 658.728 197.677 658.913 199.082ZM664.404 210.259C663.748 210.259 663.185 210.027 662.714 209.562C662.25 209.092 662.018 208.528 662.018 207.872C662.018 207.223 662.25 206.666 662.714 206.202C663.185 205.738 663.748 205.506 664.404 205.506C665.041 205.506 665.598 205.738 666.075 206.202C666.552 206.666 666.791 207.223 666.791 207.872C666.791 208.31 666.678 208.711 666.453 209.075C666.234 209.433 665.946 209.722 665.588 209.94C665.23 210.152 664.835 210.259 664.404 210.259Z" fill="black"/>
</g>
<defs>
<filter id="filter0_d_2_52" x="264.631" y="63.6449" width="705.237" height="80.9006" filterUnits="userSpaceOnUse" color-interpolation-filters="sRGB">
<feFlood flood-opacity="0" result="BackgroundImageFix"/>
<feColorMatrix in="SourceAlpha" type="matrix" values="0 0 0 0 0 0 0 0 0 0 0 0 0 0 0 0 0 0 127 0" result="hardAlpha"/>
<feOffset dx="2" dy="3"/>
<feGaussianBlur stdDeviation="2.5"/>
<feComposite in2="hardAlpha" operator="out"/>
<feColorMatrix type="matrix" values="0 0 0 0 0 0 0 0 0 0 0 0 0 0 0 0 0 0 0.15 0"/>
<feBlend mode="normal" in2="BackgroundImageFix" result="effect1_dropShadow_2_52"/>
<feBlend mode="normal" in="SourceGraphic" in2="effect1_dropShadow_2_52" result="shape"/>
</filter>
<filter id="filter1_d_2_52" x="261.666" y="152.473" width="676.618" height="71.2543" filterUnits="userSpaceOnUse" color-interpolation-filters="sRGB">
<feFlood flood-opacity="0" result="BackgroundImageFix"/>
<feColorMatrix in="SourceAlpha" type="matrix" values="0 0 0 0 0 0 0 0 0 0 0 0 0 0 0 0 0 0 127 0" result="hardAlpha"/>
<feOffset dx="2" dy="3"/>
<feGaussianBlur stdDeviation="2.5"/>
<feComposite in2="hardAlpha" operator="out"/>
<feColorMatrix type="matrix" values="0 0 0 0 0 0 0 0 0 0 0 0 0 0 0 0 0 0 0.15 0"/>
<feBlend mode="normal" in2="BackgroundImageFix" result="effect1_dropShadow_2_52"/>
<feBlend mode="normal" in="SourceGraphic" in2="effect1_dropShadow_2_52" result="shape"/>
</filter>
</defs>
</svg>
